<?xml version="1.0" encoding="utf-8"?>
<!-- Generator: Adobe Illustrator 23.0.1, SVG Export Plug-In . SVG Version: 6.00 Build 0)  -->
<svg version="1.1" id="Layer_1" xmlns="http://www.w3.org/2000/svg" xmlns:xlink="http://www.w3.org/1999/xlink" x="0px" y="0px"
	 viewBox="0 0 128 128" style="enable-background:new 0 0 128 128;" xml:space="preserve">
<style type="text/css">
	.st0{fill:none;stroke:#FFB703;stroke-width:3.3682;stroke-linecap:round;stroke-linejoin:round;stroke-miterlimit:10;}
</style>
<path class="st0" d="M87.15,48.47c-2.38-7.14-2.97-10.71-1.78-16.06c1.19-5.35,2.97-11.9,8.33-14.28c5.35-2.38,9.22-0.3,9.22-0.3
	c3.57,2.38,2.38,8.33,3.57,13.68c1.19,5.35,3.57,16.06,5.95,20.82s7.73,13.68,7.73,28.56s-5.95,33.91-19.63,38.08
	c-13.68,4.16-28.86,3.27-41.94-3.27c-13.09-6.54-32.13-16.66-39.86-24.39c-3.71-3.71-5.81-8.53-5.35-10.11
	c1.19-4.16,7.73-7.14,13.09-6.54c4.88,0.54,1.78,0,12.49,5.95c5.6,3.11,10.11,4.76,9.52,6.54c-0.59,1.78-8.92-1.78-12.49-3.57
	c-3.57-1.78-11.3-6.54-19.04-13.09S5.65,57.99,9.22,52.04s21.42-0.59,27.37,2.38c5.95,2.97,16.06,12.49,17.85,14.87
	c1.78,2.38-8.89-4.22-12.49-6.54c-8.33-5.35-19.04-17.25-22.01-23.8s-5.95-10.11-0.59-14.87c6.29-5.59,19.04,3.57,22.01,5.35
	c2.97,1.78,13.09,10.11,17.85,14.28s8.92,9.52,8.33,10.11c-0.59,0.59-7.73-4.16-11.9-8.33c-7.44-7.44-10.71-13.09-14.87-20.23
	S37.18,8.6,41.94,6.82s14.28,4.16,21.42,11.3c4.21,4.21,22.61,27.37,24.39,31.53s1.19,4.76-2.38,10.11
	c-3.57,5.35-7.14,13.68,0.59,26.18s11.9,16.66,15.47,18.44c3.57,1.78,7.14-1.78,3.57-4.76c-3.57-2.97-13.68-13.09-30.94-12.49"/>
</svg>
