<svg
  width="951"
  height="220"
  viewBox="0 0 951 220"
  fill="none"
  xmlns="http://www.w3.org/2000/svg"
>
  <path
    d="M124.742 71.8568C121.117 60.99 120.216 55.5566 122.025 47.4138C123.834 39.271 126.552 29.3049 134.703 25.6802C142.855 22.0555 148.743 25.2262 148.743 25.2262C154.178 28.8509 152.369 37.9017 154.178 46.0518C155.987 54.2019 159.612 70.4948 163.23 77.7442C166.856 84.9863 175 98.5698 175 121.204C175 143.838 165.948 172.814 145.118 179.148C124.288 185.482 101.196 184.128 81.2743 174.169C61.353 164.21 32.3718 148.818 20.602 137.05C14.9552 131.405 11.7619 124.067 12.4504 121.658C14.2594 115.317 24.2201 110.791 32.3718 111.699C39.791 112.527 35.089 111.699 51.3923 120.75C59.9174 125.488 66.7874 127.992 65.8792 130.709C64.971 133.426 52.2931 127.992 46.8587 125.275C41.4243 122.559 29.6545 115.317 17.8775 105.358C6.11509 95.3918 0.68065 86.341 6.11508 77.2902C11.5495 68.2394 38.7144 76.3822 47.7742 80.9149C56.8267 85.4403 72.2218 99.9318 74.939 103.549C77.6563 107.167 61.4116 97.1199 55.9185 93.5904C43.2406 85.4403 26.9373 67.3314 22.4111 57.3726C17.8848 47.4138 13.3586 41.9804 21.5029 34.7383C31.0754 26.2294 50.4841 40.1717 55.0103 42.8884C59.5366 45.6051 74.9317 58.2806 82.1752 64.622C89.4187 70.9634 95.7613 79.1062 94.8531 80.0142C93.9449 80.9222 83.0834 73.6728 76.7408 67.3387C65.4105 56.0106 60.4374 47.4211 54.1022 36.5543C47.7669 25.6875 48.6677 11.2034 55.9112 8.48666C63.1547 5.76996 77.6489 14.8281 88.5105 25.6875C94.9117 32.0875 122.926 67.3387 125.636 73.6728C128.346 80.0069 127.445 80.9149 122.011 89.065C116.576 97.2151 111.142 109.891 122.919 128.9C134.696 147.91 141.031 154.251 146.466 156.968C151.9 159.685 157.334 154.251 151.9 149.726C146.466 145.2 131.07 129.808 104.806 130.709"
    stroke="#FFB703"
    stroke-width="7"
    stroke-miterlimit="10"
    stroke-linecap="round"
    stroke-linejoin="round"
  />
  <path
    d="M208.853 102.689C208.853 93.9422 210.133 86.1022 212.693 79.1689C215.359 72.1289 219.093 66.2089 223.893 61.4089C228.693 56.5022 234.559 52.7689 241.493 50.2089C248.426 47.5422 256.213 46.2089 264.853 46.2089C273.919 46.2089 280.799 47.9689 285.493 51.4889C290.293 55.0089 292.693 60.1289 292.693 66.8489C292.693 69.8355 292.106 72.2355 290.933 74.0489C289.866 75.7555 288.106 77.0889 285.653 78.0489C283.199 78.9022 280.053 79.4355 276.213 79.6489C272.373 79.8622 267.733 79.9689 262.293 79.9689C260.266 79.9689 258.079 80.2355 255.733 80.7689C253.493 81.1955 251.413 82.2089 249.493 83.8089C247.573 85.3022 245.973 87.4889 244.693 90.3689C243.413 93.2489 242.773 97.0889 242.773 101.889C242.773 109.676 243.839 115.436 245.973 119.169C248.106 122.902 252.159 124.769 258.133 124.769C262.186 124.769 264.746 124.396 265.813 123.649C266.879 122.796 267.413 121.409 267.413 119.489C267.413 117.676 266.933 116.609 265.973 116.289C265.013 115.862 263.786 115.649 262.293 115.649C261.119 115.649 259.839 115.596 258.453 115.489C257.173 115.382 255.999 114.956 254.933 114.209C253.866 113.356 252.959 112.076 252.213 110.369C251.573 108.556 251.253 105.942 251.253 102.529C251.253 98.1555 252.373 95.0089 254.613 93.0889C256.959 91.0622 260.693 90.0489 265.813 90.0489C273.386 90.0489 279.306 91.0622 283.573 93.0889C287.946 95.0089 291.093 97.1422 293.013 99.4889C294.293 100.982 295.199 103.382 295.733 106.689C296.373 109.889 296.693 114.262 296.693 119.809C296.693 126.209 295.626 131.702 293.493 136.289C291.359 140.876 288.426 144.662 284.693 147.649C280.959 150.529 276.533 152.716 271.413 154.209C266.293 155.596 260.746 156.289 254.773 156.289C246.239 156.289 239.039 155.116 233.173 152.769C227.306 150.316 222.559 146.849 218.933 142.369C215.413 137.782 212.853 132.182 211.253 125.569C209.653 118.849 208.853 111.222 208.853 102.689ZM298.544 100.129C298.544 90.6355 299.664 82.3155 301.904 75.1689C304.144 67.9155 307.237 61.8355 311.184 56.9289C315.237 52.0222 320.091 48.3422 325.744 45.8889C331.504 43.3289 337.797 42.0489 344.624 42.0489C360.197 42.0489 371.397 47.0089 378.224 56.9289C385.157 66.8489 388.624 81.7822 388.624 101.729C388.624 120.929 384.944 135.382 377.584 145.089C370.224 154.796 359.664 159.649 345.904 159.649C338.757 159.649 332.251 158.316 326.384 155.649C320.517 152.982 315.504 149.142 311.344 144.129C307.291 139.009 304.144 132.769 301.904 125.409C299.664 117.942 298.544 109.516 298.544 100.129ZM344.624 79.0089C343.131 79.0089 341.904 79.7555 340.944 81.2489C339.984 82.6355 339.184 84.5022 338.544 86.8489C338.011 89.1955 337.637 91.8089 337.424 94.6889C337.211 97.5689 337.104 100.449 337.104 103.329C337.104 109.516 337.904 114.156 339.504 117.249C341.211 120.342 343.291 121.889 345.744 121.889C348.197 121.889 350.011 120.182 351.184 116.769C352.464 113.356 353.104 107.276 353.104 98.5289C353.104 94.3689 352.837 91.0622 352.304 88.6089C351.877 86.0489 351.291 84.0755 350.544 82.6889C349.797 81.1955 348.891 80.2355 347.824 79.8089C346.864 79.2755 345.797 79.0089 344.624 79.0089ZM394.95 100.129C394.95 90.6355 396.07 82.3155 398.31 75.1689C400.55 67.9155 403.643 61.8355 407.59 56.9289C411.643 52.0222 416.497 48.3422 422.15 45.8889C427.91 43.3289 434.203 42.0489 441.03 42.0489C456.603 42.0489 467.803 47.0089 474.63 56.9289C481.563 66.8489 485.03 81.7822 485.03 101.729C485.03 120.929 481.35 135.382 473.99 145.089C466.63 154.796 456.07 159.649 442.31 159.649C435.163 159.649 428.657 158.316 422.79 155.649C416.923 152.982 411.91 149.142 407.75 144.129C403.697 139.009 400.55 132.769 398.31 125.409C396.07 117.942 394.95 109.516 394.95 100.129ZM441.03 79.0089C439.537 79.0089 438.31 79.7555 437.35 81.2489C436.39 82.6355 435.59 84.5022 434.95 86.8489C434.417 89.1955 434.043 91.8089 433.83 94.6889C433.617 97.5689 433.51 100.449 433.51 103.329C433.51 109.516 434.31 114.156 435.91 117.249C437.617 120.342 439.697 121.889 442.15 121.889C444.603 121.889 446.417 120.182 447.59 116.769C448.87 113.356 449.51 107.276 449.51 98.5289C449.51 94.3689 449.243 91.0622 448.71 88.6089C448.283 86.0489 447.697 84.0755 446.95 82.6889C446.203 81.1955 445.297 80.2355 444.23 79.8089C443.27 79.2755 442.203 79.0089 441.03 79.0089ZM517.116 46.0489C526.823 46.0489 535.516 47.0089 543.196 48.9289C550.876 50.8489 557.383 53.9955 562.716 58.3689C568.05 62.6356 572.103 68.2889 574.876 75.3289C577.756 82.3689 579.196 91.0089 579.196 101.249C579.196 111.062 577.81 119.596 575.036 126.849C572.263 133.996 568.21 139.916 562.876 144.609C557.65 149.196 551.196 152.609 543.516 154.849C535.943 157.089 527.303 158.209 517.596 158.209C509.063 158.209 502.663 154.102 498.396 145.889C494.13 137.676 491.996 125.782 491.996 110.209C491.996 107.009 491.996 103.382 491.996 99.3289C492.103 95.1689 492.316 90.9555 492.636 86.6889C492.956 82.4222 493.49 78.2089 494.236 74.0489C494.983 69.7822 496.05 65.8889 497.436 62.3689C499.25 57.5689 501.81 53.6755 505.116 50.6889C508.423 47.5955 512.423 46.0489 517.116 46.0489ZM532.636 83.4889C531.25 83.4889 530.13 84.0755 529.276 85.2489C528.423 86.3155 527.783 87.7555 527.356 89.5689C526.93 91.2755 526.663 93.3022 526.556 95.6489C526.45 97.8889 526.396 100.236 526.396 102.689C526.396 107.809 526.876 112.182 527.836 115.809C528.796 119.329 530.29 121.302 532.316 121.729C532.743 121.836 533.383 121.889 534.236 121.889C536.263 121.889 537.916 121.249 539.196 119.969C540.476 118.689 541.49 117.089 542.236 115.169C542.983 113.249 543.516 111.169 543.836 108.929C544.156 106.689 544.316 104.609 544.316 102.689C544.316 100.236 544.05 97.8889 543.516 95.6489C543.09 93.3022 542.396 91.2755 541.436 89.5689C540.476 87.7555 539.25 86.3155 537.756 85.2489C536.263 84.0755 534.556 83.4889 532.636 83.4889ZM663.339 106.369C662.272 106.369 661.312 106.796 660.459 107.649C659.606 108.502 658.859 109.622 658.219 111.009C657.579 112.396 656.939 113.996 656.299 115.809C655.659 117.622 654.966 119.436 654.219 121.249C652.726 124.662 651.126 127.756 649.419 130.529C647.819 133.196 645.792 134.529 643.339 134.529C640.992 134.529 638.966 134.049 637.259 133.089C635.552 132.129 634.112 130.902 632.939 129.409C631.766 127.809 630.752 126.049 629.899 124.129C629.152 122.209 628.512 120.289 627.979 118.369C627.126 115.382 626.379 112.769 625.739 110.529C625.206 108.182 624.352 107.009 623.179 107.009C622.859 107.009 622.486 107.222 622.059 107.649C621.099 108.716 620.512 110.262 620.299 112.289C620.086 114.209 620.032 116.449 620.139 119.009C620.352 121.569 620.566 124.342 620.779 127.329C621.099 130.209 621.259 133.089 621.259 135.969C621.259 138.956 620.939 141.729 620.299 144.289C619.659 146.849 618.699 149.089 617.419 151.009C616.246 152.929 614.806 154.422 613.099 155.489C611.392 156.556 609.419 157.089 607.179 157.089C602.699 157.089 599.072 156.236 596.299 154.529C593.526 152.822 591.392 150.102 589.899 146.369C589.472 145.302 588.939 143.649 588.299 141.409C587.766 139.169 587.179 136.502 586.539 133.409C586.006 130.209 585.526 126.636 585.099 122.689C584.779 118.636 584.619 114.369 584.619 109.889C584.619 104.662 584.619 99.9689 584.619 95.8089C584.726 91.5422 584.886 87.6489 585.099 84.1289C585.312 80.5022 585.579 77.1422 585.899 74.0489C586.326 70.8489 586.859 67.6489 587.499 64.4489C588.032 61.5689 589.046 59.0622 590.539 56.9289C592.139 54.6889 593.846 52.8222 595.659 51.3289C597.579 49.8355 599.552 48.7155 601.579 47.9689C603.606 47.2222 605.366 46.8489 606.859 46.8489C611.232 46.8489 615.019 47.7555 618.219 49.5689C621.419 51.2755 624.139 53.4622 626.379 56.1289C628.726 58.6889 630.699 61.5155 632.299 64.6089C633.899 67.7022 635.286 70.5822 636.459 73.2489C637.739 75.8089 638.859 77.9955 639.819 79.8089C640.886 81.5155 642.006 82.3689 643.179 82.3689C644.352 82.3689 645.472 81.5155 646.539 79.8089C647.712 77.9955 648.939 75.7555 650.219 73.0889C651.499 70.3155 652.886 67.3822 654.379 64.2889C655.979 61.1955 657.792 58.3155 659.819 55.6489C661.846 52.8755 664.139 50.6355 666.699 48.9289C669.366 47.1155 672.352 46.2089 675.659 46.2089C679.606 46.2089 682.912 47.5422 685.579 50.2089C688.352 52.8755 690.592 56.5022 692.299 61.0889C694.006 65.5689 695.232 70.8489 695.979 76.9289C696.726 83.0089 697.099 89.4622 697.099 96.2889C697.099 104.289 696.992 111.969 696.779 119.329C696.566 126.689 695.926 133.196 694.859 138.849C693.792 144.396 692.192 148.876 690.059 152.289C687.926 155.596 684.939 157.249 681.099 157.249C677.259 157.249 674.059 156.662 671.499 155.489C669.046 154.422 667.126 152.929 665.739 151.009C664.352 149.089 663.392 146.849 662.859 144.289C662.326 141.729 662.059 139.009 662.059 136.129C662.059 131.969 662.219 128.822 662.539 126.689C662.966 124.556 663.339 122.849 663.659 121.569C664.086 120.182 664.459 119.009 664.779 118.049C665.206 116.982 665.419 115.489 665.419 113.569C665.419 112.929 665.419 112.182 665.419 111.329C665.419 110.476 665.366 109.729 665.259 109.089C665.152 108.342 664.939 107.702 664.619 107.169C664.299 106.636 663.872 106.369 663.339 106.369ZM734.275 117.249C734.382 119.916 735.662 121.569 738.115 122.209C740.568 122.742 743.555 123.009 747.075 123.009C750.062 123.009 753.208 123.009 756.515 123.009C759.822 123.009 762.808 123.436 765.475 124.289C768.248 125.142 770.542 126.582 772.355 128.609C774.168 130.636 775.075 133.729 775.075 137.889C775.075 151.329 764.622 158.049 743.715 158.049C736.142 158.049 729.688 157.089 724.355 155.169C719.128 153.249 714.862 150.209 711.555 146.049C708.355 141.782 706.008 136.236 704.515 129.409C703.128 122.476 702.435 114.049 702.435 104.129C702.435 98.7955 702.595 93.4622 702.915 88.1289C703.342 82.7955 703.875 77.8355 704.515 73.2489C705.155 68.6622 705.902 64.6089 706.755 61.0889C707.715 57.5689 708.675 54.9555 709.635 53.2489C711.448 50.2622 714.488 47.9155 718.755 46.2089C723.128 44.3955 728.142 43.4889 733.795 43.4889C736.995 43.4889 740.622 43.8089 744.675 44.4489C748.835 44.9822 752.835 45.7289 756.675 46.6889C760.515 47.5422 763.982 48.5022 767.075 49.5689C770.275 50.6355 772.515 51.7022 773.795 52.7689C776.355 54.7955 777.635 58.8489 777.635 64.9289C777.635 70.6889 776.408 74.9555 773.955 77.7289C771.608 80.3955 767.875 81.7289 762.755 81.7289C759.022 81.7289 755.182 81.2489 751.235 80.2889C747.395 79.2222 743.608 78.6889 739.875 78.6889C738.168 78.6889 736.995 78.9022 736.355 79.3289C735.822 79.6489 735.555 80.2889 735.555 81.2489C735.555 83.2755 736.408 84.7155 738.115 85.5689C739.928 86.3155 742.115 86.9022 744.675 87.3289C747.342 87.6489 750.168 87.9155 753.155 88.1289C756.248 88.3422 759.075 88.8755 761.635 89.7289C764.302 90.4755 766.488 91.7555 768.195 93.5689C770.008 95.3822 770.915 97.9955 770.915 101.409C770.915 105.996 769.315 109.569 766.115 112.129C763.022 114.689 758.702 115.969 753.155 115.969C751.448 115.969 749.742 115.916 748.035 115.809C746.435 115.596 744.782 115.489 743.075 115.489C739.342 115.489 736.408 116.076 734.275 117.249ZM802.915 46.6889C808.462 46.6889 812.888 48.1822 816.195 51.1689C819.608 54.0489 821.315 57.8889 821.315 62.6889C821.315 63.4355 821.262 64.5022 821.155 65.8889C821.048 67.1689 820.942 68.5556 820.835 70.0489C820.835 71.4355 820.782 72.8222 820.675 74.2089C820.568 75.5955 820.515 76.8222 820.515 77.8889C820.515 82.3689 821.315 85.8355 822.915 88.2889C824.622 90.7422 826.968 91.9689 829.955 91.9689C832.408 91.9689 834.275 91.1689 835.555 89.5689C836.835 87.9689 837.742 86.1022 838.275 83.9689C838.808 81.8355 839.075 79.6489 839.075 77.4089C839.182 75.0622 839.235 73.2489 839.235 71.9689C839.235 63.3289 840.835 56.6089 844.035 51.8089C847.342 46.9022 851.982 44.4489 857.955 44.4489C862.115 44.4489 865.635 45.6222 868.515 47.9689C871.395 50.3155 873.315 53.5155 874.275 57.5689C874.808 59.8089 875.182 62.8489 875.395 66.6889C875.715 70.4222 875.928 74.3689 876.035 78.5289C876.248 82.6889 876.355 86.6889 876.355 90.5289C876.355 94.2622 876.355 97.2489 876.355 99.4889C876.355 112.396 875.768 123.276 874.595 132.129C873.528 140.982 871.982 146.956 869.955 150.049C868.675 151.969 866.702 153.462 864.035 154.529C861.475 155.596 858.488 156.129 855.075 156.129C851.235 156.129 848.195 155.489 845.955 154.209C843.715 152.822 842.008 151.062 840.835 148.929C839.768 146.796 839.075 144.449 838.755 141.889C838.542 139.222 838.435 136.609 838.435 134.049C838.435 131.809 838.382 129.622 838.275 127.489C838.275 125.356 838.008 123.489 837.475 121.889C837.048 120.182 836.302 118.849 835.235 117.889C834.168 116.929 832.675 116.449 830.755 116.449C828.728 116.449 827.075 116.982 825.795 118.049C824.622 119.009 823.715 120.342 823.075 122.049C822.435 123.649 822.008 125.516 821.795 127.649C821.582 129.782 821.475 131.969 821.475 134.209C821.475 136.982 821.262 139.649 820.835 142.209C820.515 144.769 819.822 147.062 818.755 149.089C817.688 151.009 816.142 152.556 814.115 153.729C812.195 154.902 809.582 155.489 806.275 155.489C795.928 155.489 789.315 148.929 786.435 135.809C785.262 130.369 784.568 123.916 784.355 116.449C784.142 108.982 784.035 101.409 784.035 93.7289C784.035 91.5955 784.035 89.4622 784.035 87.3289C784.035 85.1955 784.035 83.2222 784.035 81.4089C784.142 79.5955 784.195 77.9955 784.195 76.6089C784.195 75.1156 784.195 73.9956 784.195 73.2489C784.195 64.1822 785.688 57.5155 788.675 53.2489C791.768 48.8755 796.515 46.6889 802.915 46.6889ZM913.803 36.4489C924.469 36.4489 932.576 39.1155 938.123 44.4489C943.776 49.7822 946.603 57.7822 946.603 68.4489C946.603 74.2089 945.909 78.6889 944.523 81.8889C943.243 85.0889 941.589 87.9155 939.563 90.3689C937.643 92.7155 935.509 95.1155 933.163 97.5689C930.923 100.022 928.843 103.329 926.923 107.489C926.176 109.196 925.376 111.009 924.523 112.929C923.669 114.849 922.603 116.662 921.323 118.369C920.149 119.969 918.656 121.302 916.843 122.369C915.029 123.436 912.736 123.969 909.963 123.969C905.376 123.969 901.749 122.529 899.083 119.649C896.416 116.769 895.083 112.929 895.083 108.129C895.083 104.396 895.776 101.089 897.163 98.2089C898.549 95.2222 900.043 92.5022 901.643 90.0489C903.349 87.4889 904.896 85.1955 906.283 83.1689C907.669 81.0355 908.363 79.0089 908.363 77.0889C908.363 75.4889 907.723 74.6889 906.443 74.6889C905.376 74.6889 904.363 75.1155 903.403 75.9689C902.443 76.7155 901.323 77.5689 900.043 78.5289C898.869 79.4889 897.536 80.3955 896.043 81.2489C894.656 81.9955 892.949 82.3689 890.923 82.3689C887.509 82.3689 884.896 81.0889 883.083 78.5289C881.269 75.8622 880.363 72.1289 880.363 67.3289C880.363 62.9555 881.056 58.9022 882.443 55.1689C883.829 51.4355 885.909 48.1822 888.683 45.4089C891.563 42.6355 895.083 40.4489 899.243 38.8489C903.403 37.2489 908.256 36.4489 913.803 36.4489ZM890.763 143.489C890.763 141.142 891.243 138.956 892.203 136.929C893.269 134.902 894.656 133.142 896.363 131.649C898.176 130.049 900.256 128.822 902.603 127.969C904.949 127.116 907.456 126.689 910.123 126.689C912.683 126.689 915.083 127.116 917.323 127.969C919.563 128.822 921.483 129.996 923.083 131.489C924.789 132.982 926.069 134.742 926.923 136.769C927.883 138.796 928.363 141.036 928.363 143.489C928.363 145.836 927.883 148.076 926.923 150.209C925.963 152.342 924.683 154.156 923.083 155.649C921.483 157.142 919.563 158.316 917.323 159.169C915.083 160.129 912.683 160.609 910.123 160.609C907.563 160.609 905.109 160.129 902.763 159.169C900.416 158.316 898.336 157.089 896.523 155.489C894.816 153.996 893.429 152.236 892.363 150.209C891.296 148.076 890.763 145.836 890.763 143.489Z"
    fill="#FFB703"
  />
</svg>
