<svg
  width="685"
  height="323"
  viewBox="0 0 685 323"
  fill="none"
  xmlns="http://www.w3.org/2000/svg"
>
  <path
    d="M168.49 138.22C163.54 123.38 162.31 115.96 164.78 104.84C167.25 93.72 170.96 80.11 182.09 75.16C193.22 70.21 201.26 74.54 201.26 74.54C208.68 79.49 206.21 91.85 208.68 102.98C211.15 114.11 216.1 136.36 221.04 146.26C225.99 156.15 237.11 174.7 237.11 205.61C237.11 236.52 224.75 276.09 196.31 284.74C167.87 293.39 136.34 291.54 109.14 277.94C81.94 264.34 42.37 243.32 26.3 227.25C18.59 219.54 14.23 209.52 15.17 206.23C17.64 197.57 31.24 191.39 42.37 192.63C52.5 193.76 46.08 192.63 68.34 204.99C79.98 211.46 89.36 214.88 88.12 218.59C86.88 222.3 69.57 214.88 62.15 211.17C54.73 207.46 38.66 197.57 22.58 183.97C6.52 170.36 -0.899999 158 6.52 145.64C13.94 133.28 51.03 144.4 63.4 150.59C75.76 156.77 96.78 176.56 100.49 181.5C104.2 186.44 82.02 172.72 74.52 167.9C57.21 156.77 34.95 132.04 28.77 118.44C22.59 104.84 16.41 97.42 27.53 87.53C40.6 75.91 67.1 94.95 73.28 98.66C79.46 102.37 100.48 119.68 110.37 128.34C120.26 137 128.92 148.12 127.68 149.36C126.44 150.6 111.61 140.7 102.95 132.05C87.48 116.58 80.69 104.85 72.04 90.01C63.39 75.17 64.62 55.39 74.51 51.68C84.4 47.97 104.19 60.34 119.02 75.17C127.76 83.91 166.01 132.05 169.71 140.7C173.41 149.35 172.18 150.59 164.76 161.72C157.34 172.85 149.92 190.16 166 216.12C182.08 242.08 190.73 250.74 198.15 254.45C205.57 258.16 212.99 250.74 205.57 244.56C198.15 238.38 177.13 217.36 141.27 218.59"
    stroke="#FFB703"
    stroke-width="7"
    stroke-miterlimit="10"
    stroke-linecap="round"
    stroke-linejoin="round"
  />
  <path
    d="M270.853 102.689C270.853 93.9422 272.133 86.1022 274.693 79.1689C277.359 72.1289 281.093 66.2089 285.893 61.4089C290.693 56.5022 296.559 52.7689 303.493 50.2089C310.426 47.5422 318.213 46.2089 326.853 46.2089C335.919 46.2089 342.799 47.9689 347.493 51.4889C352.293 55.0089 354.693 60.1289 354.693 66.8489C354.693 69.8356 354.106 72.2356 352.933 74.0489C351.866 75.7556 350.106 77.0889 347.653 78.0489C345.199 78.9022 342.053 79.4356 338.213 79.6489C334.373 79.8622 329.733 79.9689 324.293 79.9689C322.266 79.9689 320.079 80.2356 317.733 80.7689C315.493 81.1956 313.413 82.2089 311.493 83.8089C309.573 85.3022 307.973 87.4889 306.693 90.3689C305.413 93.2489 304.773 97.0889 304.773 101.889C304.773 109.676 305.839 115.436 307.973 119.169C310.106 122.902 314.159 124.769 320.133 124.769C324.186 124.769 326.746 124.396 327.813 123.649C328.879 122.796 329.413 121.409 329.413 119.489C329.413 117.676 328.933 116.609 327.973 116.289C327.013 115.862 325.786 115.649 324.293 115.649C323.119 115.649 321.839 115.596 320.453 115.489C319.173 115.382 317.999 114.956 316.933 114.209C315.866 113.356 314.959 112.076 314.213 110.369C313.573 108.556 313.253 105.942 313.253 102.529C313.253 98.1556 314.373 95.0089 316.613 93.0889C318.959 91.0622 322.693 90.0489 327.813 90.0489C335.386 90.0489 341.306 91.0622 345.573 93.0889C349.946 95.0089 353.093 97.1422 355.013 99.4889C356.293 100.982 357.199 103.382 357.733 106.689C358.373 109.889 358.693 114.262 358.693 119.809C358.693 126.209 357.626 131.702 355.493 136.289C353.359 140.876 350.426 144.662 346.693 147.649C342.959 150.529 338.533 152.716 333.413 154.209C328.293 155.596 322.746 156.289 316.773 156.289C308.239 156.289 301.039 155.116 295.173 152.769C289.306 150.316 284.559 146.849 280.933 142.369C277.413 137.782 274.853 132.182 273.253 125.569C271.653 118.849 270.853 111.222 270.853 102.689ZM360.544 100.129C360.544 90.6356 361.664 82.3156 363.904 75.1689C366.144 67.9156 369.237 61.8356 373.184 56.9289C377.237 52.0222 382.091 48.3422 387.744 45.8889C393.504 43.3289 399.797 42.0489 406.624 42.0489C422.197 42.0489 433.397 47.0089 440.224 56.9289C447.157 66.8489 450.624 81.7822 450.624 101.729C450.624 120.929 446.944 135.382 439.584 145.089C432.224 154.796 421.664 159.649 407.904 159.649C400.757 159.649 394.251 158.316 388.384 155.649C382.517 152.982 377.504 149.142 373.344 144.129C369.291 139.009 366.144 132.769 363.904 125.409C361.664 117.942 360.544 109.516 360.544 100.129ZM406.624 79.0089C405.131 79.0089 403.904 79.7556 402.944 81.2489C401.984 82.6356 401.184 84.5022 400.544 86.8489C400.011 89.1956 399.637 91.8089 399.424 94.6889C399.211 97.5689 399.104 100.449 399.104 103.329C399.104 109.516 399.904 114.156 401.504 117.249C403.211 120.342 405.291 121.889 407.744 121.889C410.197 121.889 412.011 120.182 413.184 116.769C414.464 113.356 415.104 107.276 415.104 98.5289C415.104 94.3689 414.837 91.0622 414.304 88.6089C413.877 86.0489 413.291 84.0756 412.544 82.6889C411.797 81.1956 410.891 80.2356 409.824 79.8089C408.864 79.2756 407.797 79.0089 406.624 79.0089ZM456.95 100.129C456.95 90.6356 458.07 82.3156 460.31 75.1689C462.55 67.9156 465.643 61.8356 469.59 56.9289C473.643 52.0222 478.497 48.3422 484.15 45.8889C489.91 43.3289 496.203 42.0489 503.03 42.0489C518.603 42.0489 529.803 47.0089 536.63 56.9289C543.563 66.8489 547.03 81.7822 547.03 101.729C547.03 120.929 543.35 135.382 535.99 145.089C528.63 154.796 518.07 159.649 504.31 159.649C497.163 159.649 490.657 158.316 484.79 155.649C478.923 152.982 473.91 149.142 469.75 144.129C465.697 139.009 462.55 132.769 460.31 125.409C458.07 117.942 456.95 109.516 456.95 100.129ZM503.03 79.0089C501.537 79.0089 500.31 79.7556 499.35 81.2489C498.39 82.6356 497.59 84.5022 496.95 86.8489C496.417 89.1956 496.043 91.8089 495.83 94.6889C495.617 97.5689 495.51 100.449 495.51 103.329C495.51 109.516 496.31 114.156 497.91 117.249C499.617 120.342 501.697 121.889 504.15 121.889C506.603 121.889 508.417 120.182 509.59 116.769C510.87 113.356 511.51 107.276 511.51 98.5289C511.51 94.3689 511.243 91.0622 510.71 88.6089C510.283 86.0489 509.697 84.0756 508.95 82.6889C508.203 81.1956 507.297 80.2356 506.23 79.8089C505.27 79.2756 504.203 79.0089 503.03 79.0089ZM579.116 46.0489C588.823 46.0489 597.516 47.0089 605.196 48.9289C612.876 50.8489 619.383 53.9956 624.716 58.3689C630.05 62.6356 634.103 68.2889 636.876 75.3289C639.756 82.3689 641.196 91.0089 641.196 101.249C641.196 111.062 639.81 119.596 637.036 126.849C634.263 133.996 630.21 139.916 624.876 144.609C619.65 149.196 613.196 152.609 605.516 154.849C597.943 157.089 589.303 158.209 579.596 158.209C571.063 158.209 564.663 154.102 560.396 145.889C556.13 137.676 553.996 125.782 553.996 110.209C553.996 107.009 553.996 103.382 553.996 99.3289C554.103 95.1689 554.316 90.9556 554.636 86.6889C554.956 82.4222 555.49 78.2089 556.236 74.0489C556.983 69.7822 558.05 65.8889 559.436 62.3689C561.25 57.5689 563.81 53.6756 567.116 50.6889C570.423 47.5956 574.423 46.0489 579.116 46.0489ZM594.636 83.4889C593.25 83.4889 592.13 84.0756 591.276 85.2489C590.423 86.3156 589.783 87.7556 589.356 89.5689C588.93 91.2756 588.663 93.3022 588.556 95.6489C588.45 97.8889 588.396 100.236 588.396 102.689C588.396 107.809 588.876 112.182 589.836 115.809C590.796 119.329 592.29 121.302 594.316 121.729C594.743 121.836 595.383 121.889 596.236 121.889C598.263 121.889 599.916 121.249 601.196 119.969C602.476 118.689 603.49 117.089 604.236 115.169C604.983 113.249 605.516 111.169 605.836 108.929C606.156 106.689 606.316 104.609 606.316 102.689C606.316 100.236 606.05 97.8889 605.516 95.6489C605.09 93.3022 604.396 91.2756 603.436 89.5689C602.476 87.7556 601.25 86.3156 599.756 85.2489C598.263 84.0756 596.556 83.4889 594.636 83.4889Z"
    fill="#FFB703"
  />
  <path
    d="M355.253 236.369C354.186 236.369 353.226 236.796 352.373 237.649C351.519 238.502 350.773 239.622 350.133 241.009C349.493 242.396 348.853 243.996 348.213 245.809C347.573 247.622 346.879 249.436 346.133 251.249C344.639 254.662 343.039 257.756 341.333 260.529C339.733 263.196 337.706 264.529 335.253 264.529C332.906 264.529 330.879 264.049 329.173 263.089C327.466 262.129 326.026 260.902 324.853 259.409C323.679 257.809 322.666 256.049 321.813 254.129C321.066 252.209 320.426 250.289 319.893 248.369C319.039 245.382 318.293 242.769 317.653 240.529C317.119 238.182 316.266 237.009 315.093 237.009C314.773 237.009 314.399 237.222 313.973 237.649C313.013 238.716 312.426 240.262 312.213 242.289C311.999 244.209 311.946 246.449 312.053 249.009C312.266 251.569 312.479 254.342 312.693 257.329C313.013 260.209 313.173 263.089 313.173 265.969C313.173 268.956 312.853 271.729 312.213 274.289C311.573 276.849 310.613 279.089 309.333 281.009C308.159 282.929 306.719 284.422 305.013 285.489C303.306 286.556 301.333 287.089 299.093 287.089C294.613 287.089 290.986 286.236 288.213 284.529C285.439 282.822 283.306 280.102 281.813 276.369C281.386 275.302 280.853 273.649 280.213 271.409C279.679 269.169 279.093 266.502 278.453 263.409C277.919 260.209 277.439 256.636 277.013 252.689C276.693 248.636 276.533 244.369 276.533 239.889C276.533 234.662 276.533 229.969 276.533 225.809C276.639 221.542 276.799 217.649 277.013 214.129C277.226 210.502 277.493 207.142 277.813 204.049C278.239 200.849 278.773 197.649 279.413 194.449C279.946 191.569 280.959 189.062 282.453 186.929C284.053 184.689 285.759 182.822 287.573 181.329C289.493 179.836 291.466 178.716 293.493 177.969C295.519 177.222 297.279 176.849 298.773 176.849C303.146 176.849 306.933 177.756 310.133 179.569C313.333 181.276 316.053 183.462 318.293 186.129C320.639 188.689 322.613 191.516 324.213 194.609C325.813 197.702 327.199 200.582 328.373 203.249C329.653 205.809 330.773 207.996 331.733 209.809C332.799 211.516 333.919 212.369 335.093 212.369C336.266 212.369 337.386 211.516 338.453 209.809C339.626 207.996 340.853 205.756 342.133 203.089C343.413 200.316 344.799 197.382 346.293 194.289C347.893 191.196 349.706 188.316 351.733 185.649C353.759 182.876 356.053 180.636 358.613 178.929C361.279 177.116 364.266 176.209 367.573 176.209C371.519 176.209 374.826 177.542 377.493 180.209C380.266 182.876 382.506 186.502 384.213 191.089C385.919 195.569 387.146 200.849 387.893 206.929C388.639 213.009 389.013 219.462 389.013 226.289C389.013 234.289 388.906 241.969 388.693 249.329C388.479 256.689 387.839 263.196 386.773 268.849C385.706 274.396 384.106 278.876 381.973 282.289C379.839 285.596 376.853 287.249 373.013 287.249C369.173 287.249 365.973 286.662 363.413 285.489C360.959 284.422 359.039 282.929 357.653 281.009C356.266 279.089 355.306 276.849 354.773 274.289C354.239 271.729 353.973 269.009 353.973 266.129C353.973 261.969 354.133 258.822 354.453 256.689C354.879 254.556 355.253 252.849 355.573 251.569C355.999 250.182 356.373 249.009 356.693 248.049C357.119 246.982 357.333 245.489 357.333 243.569C357.333 242.929 357.333 242.182 357.333 241.329C357.333 240.476 357.279 239.729 357.173 239.089C357.066 238.342 356.853 237.702 356.533 237.169C356.213 236.636 355.786 236.369 355.253 236.369ZM426.189 247.249C426.296 249.916 427.576 251.569 430.029 252.209C432.482 252.742 435.469 253.009 438.989 253.009C441.976 253.009 445.122 253.009 448.429 253.009C451.736 253.009 454.722 253.436 457.389 254.289C460.162 255.142 462.456 256.582 464.269 258.609C466.082 260.636 466.989 263.729 466.989 267.889C466.989 281.329 456.536 288.049 435.629 288.049C428.056 288.049 421.602 287.089 416.269 285.169C411.042 283.249 406.776 280.209 403.469 276.049C400.269 271.782 397.922 266.236 396.429 259.409C395.042 252.476 394.349 244.049 394.349 234.129C394.349 228.796 394.509 223.462 394.829 218.129C395.256 212.796 395.789 207.836 396.429 203.249C397.069 198.662 397.816 194.609 398.669 191.089C399.629 187.569 400.589 184.956 401.549 183.249C403.362 180.262 406.402 177.916 410.669 176.209C415.042 174.396 420.056 173.489 425.709 173.489C428.909 173.489 432.536 173.809 436.589 174.449C440.749 174.982 444.749 175.729 448.589 176.689C452.429 177.542 455.896 178.502 458.989 179.569C462.189 180.636 464.429 181.702 465.709 182.769C468.269 184.796 469.549 188.849 469.549 194.929C469.549 200.689 468.322 204.956 465.869 207.729C463.522 210.396 459.789 211.729 454.669 211.729C450.936 211.729 447.096 211.249 443.149 210.289C439.309 209.222 435.522 208.689 431.789 208.689C430.082 208.689 428.909 208.902 428.269 209.329C427.736 209.649 427.469 210.289 427.469 211.249C427.469 213.276 428.322 214.716 430.029 215.569C431.842 216.316 434.029 216.902 436.589 217.329C439.256 217.649 442.082 217.916 445.069 218.129C448.162 218.342 450.989 218.876 453.549 219.729C456.216 220.476 458.402 221.756 460.109 223.569C461.922 225.382 462.829 227.996 462.829 231.409C462.829 235.996 461.229 239.569 458.029 242.129C454.936 244.689 450.616 245.969 445.069 245.969C443.362 245.969 441.656 245.916 439.949 245.809C438.349 245.596 436.696 245.489 434.989 245.489C431.256 245.489 428.322 246.076 426.189 247.249ZM494.829 176.689C500.376 176.689 504.802 178.182 508.109 181.169C511.522 184.049 513.229 187.889 513.229 192.689C513.229 193.436 513.176 194.502 513.069 195.889C512.962 197.169 512.856 198.556 512.749 200.049C512.749 201.436 512.696 202.822 512.589 204.209C512.482 205.596 512.429 206.822 512.429 207.889C512.429 212.369 513.229 215.836 514.829 218.289C516.536 220.742 518.882 221.969 521.869 221.969C524.322 221.969 526.189 221.169 527.469 219.569C528.749 217.969 529.656 216.102 530.189 213.969C530.722 211.836 530.989 209.649 530.989 207.409C531.096 205.062 531.149 203.249 531.149 201.969C531.149 193.329 532.749 186.609 535.949 181.809C539.256 176.902 543.896 174.449 549.869 174.449C554.029 174.449 557.549 175.622 560.429 177.969C563.309 180.316 565.229 183.516 566.189 187.569C566.722 189.809 567.096 192.849 567.309 196.689C567.629 200.422 567.842 204.369 567.949 208.529C568.162 212.689 568.269 216.689 568.269 220.529C568.269 224.262 568.269 227.249 568.269 229.489C568.269 242.396 567.682 253.276 566.509 262.129C565.442 270.982 563.896 276.956 561.869 280.049C560.589 281.969 558.616 283.462 555.949 284.529C553.389 285.596 550.402 286.129 546.989 286.129C543.149 286.129 540.109 285.489 537.869 284.209C535.629 282.822 533.922 281.062 532.749 278.929C531.682 276.796 530.989 274.449 530.669 271.889C530.456 269.222 530.349 266.609 530.349 264.049C530.349 261.809 530.296 259.622 530.189 257.489C530.189 255.356 529.922 253.489 529.389 251.889C528.962 250.182 528.216 248.849 527.149 247.889C526.082 246.929 524.589 246.449 522.669 246.449C520.642 246.449 518.989 246.982 517.709 248.049C516.536 249.009 515.629 250.342 514.989 252.049C514.349 253.649 513.922 255.516 513.709 257.649C513.496 259.782 513.389 261.969 513.389 264.209C513.389 266.982 513.176 269.649 512.749 272.209C512.429 274.769 511.736 277.062 510.669 279.089C509.602 281.009 508.056 282.556 506.029 283.729C504.109 284.902 501.496 285.489 498.189 285.489C487.842 285.489 481.229 278.929 478.349 265.809C477.176 260.369 476.482 253.916 476.269 246.449C476.056 238.982 475.949 231.409 475.949 223.729C475.949 221.596 475.949 219.462 475.949 217.329C475.949 215.196 475.949 213.222 475.949 211.409C476.056 209.596 476.109 207.996 476.109 206.609C476.109 205.116 476.109 203.996 476.109 203.249C476.109 194.182 477.602 187.516 480.589 183.249C483.682 178.876 488.429 176.689 494.829 176.689ZM605.716 166.449C616.383 166.449 624.49 169.116 630.036 174.449C635.69 179.782 638.516 187.782 638.516 198.449C638.516 204.209 637.823 208.689 636.436 211.889C635.156 215.089 633.503 217.916 631.476 220.369C629.556 222.716 627.423 225.116 625.076 227.569C622.836 230.022 620.756 233.329 618.836 237.489C618.09 239.196 617.29 241.009 616.436 242.929C615.583 244.849 614.516 246.662 613.236 248.369C612.063 249.969 610.57 251.302 608.756 252.369C606.943 253.436 604.65 253.969 601.876 253.969C597.29 253.969 593.663 252.529 590.996 249.649C588.33 246.769 586.996 242.929 586.996 238.129C586.996 234.396 587.69 231.089 589.076 228.209C590.463 225.222 591.956 222.502 593.556 220.049C595.263 217.489 596.81 215.196 598.196 213.169C599.583 211.036 600.276 209.009 600.276 207.089C600.276 205.489 599.636 204.689 598.356 204.689C597.29 204.689 596.276 205.116 595.316 205.969C594.356 206.716 593.236 207.569 591.956 208.529C590.783 209.489 589.45 210.396 587.956 211.249C586.57 211.996 584.863 212.369 582.836 212.369C579.423 212.369 576.81 211.089 574.996 208.529C573.183 205.862 572.276 202.129 572.276 197.329C572.276 192.956 572.97 188.902 574.356 185.169C575.743 181.436 577.823 178.182 580.596 175.409C583.476 172.636 586.996 170.449 591.156 168.849C595.316 167.249 600.17 166.449 605.716 166.449ZM582.676 273.489C582.676 271.142 583.156 268.956 584.116 266.929C585.183 264.902 586.57 263.142 588.276 261.649C590.09 260.049 592.17 258.822 594.516 257.969C596.863 257.116 599.37 256.689 602.036 256.689C604.596 256.689 606.996 257.116 609.236 257.969C611.476 258.822 613.396 259.996 614.996 261.489C616.703 262.982 617.983 264.742 618.836 266.769C619.796 268.796 620.276 271.036 620.276 273.489C620.276 275.836 619.796 278.076 618.836 280.209C617.876 282.342 616.596 284.156 614.996 285.649C613.396 287.142 611.476 288.316 609.236 289.169C606.996 290.129 604.596 290.609 602.036 290.609C599.476 290.609 597.023 290.129 594.676 289.169C592.33 288.316 590.25 287.089 588.436 285.489C586.73 283.996 585.343 282.236 584.276 280.209C583.21 278.076 582.676 275.836 582.676 273.489Z"
    fill="#FFB703"
  />
</svg>
