<svg width="612" height="262" viewBox="0 0 612 262" fill="none" xmlns="http://www.w3.org/2000/svg">
<path d="M5.14374 98.5632C2.04801 116.132 6.02571 130.314 7.78966 140.898C9.13026 148.915 8.67164 152.364 9.55361 163.829C10.2945 173.504 12.1995 177.941 11.3176 192.052C9.61535 219.261 21.1427 245.791 46.7729 253.429C72.4031 261.067 100.829 259.426 125.348 247.432C149.867 235.437 185.948 218.512 199.178 208.81C207.019 203.059 224.438 185.552 218.581 176.177C209.762 162.065 195.165 169.183 185.534 172.182C172.719 176.177 172.719 176.177 162.126 183.083C152.125 189.609 143.182 191.805 144.293 195.078C145.404 198.35 161.015 191.805 167.7 188.533C174.386 185.261 189.194 176.909 203.367 164.544C213.29 155.883 216.782 143.897 208.88 133.833C199.178 121.486 177.728 129.644 166.589 135.095C155.441 140.545 136.496 157.999 133.153 162.356C129.811 166.722 149.796 154.613 156.561 150.361C172.163 140.545 177.085 135.289 184.193 124.132C190.367 114.43 192.131 106.492 185.075 96.7904C175.894 84.1605 163.255 86.0215 157.681 89.2936C152.107 92.5657 133.136 105.028 124.219 112.666C115.302 120.304 107.523 132.916 108.643 134.01C109.755 135.103 123.134 126.372 130.931 118.743C144.875 105.099 185.075 58.8743 196.541 42.9988C205.458 30.6512 208.889 13.0117 196.541 5.95588C188.294 1.24614 169.711 4.80932 157.734 19.1855C148.914 29.7692 74.0877 118.743 70.745 126.381C67.4023 134.019 68.5136 135.103 75.1989 144.92C81.8843 154.736 88.5697 170.003 74.0877 192.899C59.6056 215.795 51.8002 223.433 45.106 226.705C38.4118 229.977 32.8642 224.58 38.4206 217.982C48.3693 206.164 64.0508 193.993 96.3751 195.078" stroke="#FFB703" stroke-width="7.0766" stroke-miterlimit="10" stroke-linecap="round" stroke-linejoin="round"/>
<path d="M83.6394 109.147C74.8196 120.613 63.354 122.376 60.7081 121.495C55.4162 119.731 50.1244 114.439 46.5965 103.855" stroke="#FFB703" stroke-width="7.0766" stroke-miterlimit="10" stroke-linecap="round" stroke-linejoin="round"/>
<path d="M46.5965 102.973C43.5978 90.9606 42.1866 61.5203 27.1931 61.5203C9.55358 61.5203 7.78963 83.5696 5.14371 98.5632" stroke="#FFB703" stroke-width="7.0766" stroke-miterlimit="10" stroke-linecap="round" stroke-linejoin="round"/>
<path d="M323.4 45.32C323.507 46.3867 323.613 47.9867 323.72 50.12C323.827 52.2533 323.88 54.5467 323.88 57C323.987 59.4533 324.04 62.0133 324.04 64.68C324.147 67.24 324.2 69.5867 324.2 71.72C324.2 77.16 324.093 81.96 323.88 86.12C323.773 90.1733 323.453 93.4267 322.92 95.88C323.56 95.88 324.2 95.88 324.84 95.88C325.587 95.7733 326.333 95.72 327.08 95.72C328.04 95.72 328.947 96.04 329.8 96.68C330.76 97.2133 331.613 98.0133 332.36 99.08C333.107 100.04 333.693 101.16 334.12 102.44C334.653 103.72 334.92 105 334.92 106.28C334.92 108.947 334.067 111.507 332.36 113.96C330.653 116.413 328.307 118.6 325.32 120.52C322.44 122.333 319.08 123.773 315.24 124.84C311.4 125.907 307.347 126.44 303.08 126.44C300.52 126.44 297.64 126.227 294.44 125.8C291.24 125.373 288.2 124.573 285.32 123.4C282.547 122.12 280.2 120.413 278.28 118.28C276.36 116.147 275.4 113.427 275.4 110.12C275.4 109.267 275.453 108.147 275.56 106.76C275.773 105.267 276.093 103.827 276.52 102.44C277.053 100.947 277.747 99.6667 278.6 98.6C279.453 97.5333 280.573 97 281.96 97C282.707 97 283.453 97 284.2 97C284.947 96.8933 285.693 96.84 286.44 96.84C286.333 94.7067 286.227 92.1467 286.12 89.16C286.12 86.0667 286.067 82.9733 285.96 79.88C285.96 76.7867 285.96 73.9067 285.96 71.24C285.96 68.4667 285.96 66.44 285.96 65.16C285.96 63.56 285.96 61.8 285.96 59.88C286.067 57.8533 286.12 55.9333 286.12 54.12C286.227 52.2 286.28 50.4933 286.28 49C286.387 47.5067 286.44 46.3867 286.44 45.64H284.52C283.773 45.64 282.92 45.7467 281.96 45.96C281.107 46.0667 280.253 45.64 279.4 44.68C278.333 43.5067 277.427 41.7467 276.68 39.4C276.04 37.0533 275.72 34.6533 275.72 32.2C275.72 28.2533 276.787 25.2133 278.92 23.08C281.16 20.9467 283.88 19.4 287.08 18.44C290.28 17.3733 293.64 16.7867 297.16 16.68C300.787 16.4667 303.987 16.36 306.76 16.36C311.88 16.36 316.147 16.7333 319.56 17.48C322.973 18.12 325.747 19.1867 327.88 20.68C330.013 22.0667 331.507 23.88 332.36 26.12C333.32 28.2533 333.8 30.8133 333.8 33.8C333.8 37.4267 333.267 40.3067 332.2 42.44C331.24 44.5733 330.013 45.64 328.52 45.64L323.4 45.32ZM367.273 15.88C376.979 15.88 385.673 16.84 393.353 18.76C401.033 20.68 407.539 23.8267 412.873 28.2C418.206 32.4667 422.259 38.12 425.033 45.16C427.913 52.2 429.353 60.84 429.353 71.08C429.353 80.8933 427.966 89.4267 425.193 96.68C422.419 103.827 418.366 109.747 413.033 114.44C407.806 119.027 401.353 122.44 393.673 124.68C386.099 126.92 377.459 128.04 367.753 128.04C359.219 128.04 352.819 123.933 348.553 115.72C344.286 107.507 342.153 95.6133 342.153 80.04C342.153 76.84 342.153 73.2133 342.153 69.16C342.259 65 342.473 60.7867 342.793 56.52C343.113 52.2533 343.646 48.04 344.393 43.88C345.139 39.6133 346.206 35.72 347.593 32.2C349.406 27.4 351.966 23.5067 355.273 20.52C358.579 17.4267 362.579 15.88 367.273 15.88ZM382.793 53.32C381.406 53.32 380.286 53.9067 379.432 55.08C378.579 56.1467 377.939 57.5867 377.513 59.4C377.086 61.1067 376.819 63.1333 376.713 65.48C376.606 67.72 376.553 70.0667 376.553 72.52C376.553 77.64 377.033 82.0133 377.993 85.64C378.953 89.16 380.446 91.1333 382.473 91.56C382.899 91.6667 383.539 91.72 384.393 91.72C386.419 91.72 388.073 91.08 389.353 89.8C390.633 88.52 391.646 86.92 392.393 85C393.139 83.08 393.673 81 393.993 78.76C394.313 76.52 394.473 74.44 394.473 72.52C394.473 70.0667 394.206 67.72 393.673 65.48C393.246 63.1333 392.553 61.1067 391.593 59.4C390.633 57.5867 389.406 56.1467 387.913 55.08C386.419 53.9067 384.713 53.32 382.793 53.32ZM466.775 87.08C466.882 89.7467 468.162 91.4 470.615 92.04C473.068 92.5733 476.055 92.84 479.575 92.84C482.562 92.84 485.708 92.84 489.015 92.84C492.322 92.84 495.308 93.2667 497.975 94.12C500.748 94.9733 503.042 96.4133 504.855 98.44C506.668 100.467 507.575 103.56 507.575 107.72C507.575 121.16 497.122 127.88 476.215 127.88C468.642 127.88 462.188 126.92 456.855 125C451.628 123.08 447.362 120.04 444.055 115.88C440.855 111.613 438.508 106.067 437.015 99.24C435.628 92.3067 434.935 83.88 434.935 73.96C434.935 68.6267 435.095 63.2933 435.415 57.96C435.842 52.6267 436.375 47.6667 437.015 43.08C437.655 38.4933 438.402 34.44 439.255 30.92C440.215 27.4 441.175 24.7867 442.135 23.08C443.948 20.0933 446.988 17.7467 451.255 16.04C455.628 14.2267 460.642 13.32 466.295 13.32C469.495 13.32 473.122 13.64 477.175 14.28C481.335 14.8133 485.335 15.56 489.175 16.52C493.015 17.3733 496.482 18.3333 499.575 19.4C502.775 20.4667 505.015 21.5333 506.295 22.6C508.855 24.6267 510.135 28.68 510.135 34.76C510.135 40.52 508.908 44.7867 506.455 47.56C504.108 50.2267 500.375 51.56 495.255 51.56C491.522 51.56 487.682 51.08 483.735 50.12C479.895 49.0533 476.108 48.52 472.375 48.52C470.668 48.52 469.495 48.7333 468.855 49.16C468.322 49.48 468.055 50.12 468.055 51.08C468.055 53.1067 468.908 54.5467 470.615 55.4C472.428 56.1467 474.615 56.7333 477.175 57.16C479.842 57.48 482.668 57.7467 485.655 57.96C488.748 58.1733 491.575 58.7067 494.135 59.56C496.802 60.3067 498.988 61.5867 500.695 63.4C502.508 65.2133 503.415 67.8267 503.415 71.24C503.415 75.8267 501.815 79.4 498.615 81.96C495.522 84.52 491.202 85.8 485.655 85.8C483.948 85.8 482.242 85.7467 480.535 85.64C478.935 85.4267 477.282 85.32 475.575 85.32C471.842 85.32 468.908 85.9067 466.775 87.08ZM552.855 101.48C551.362 106.387 549.815 110.6 548.215 114.12C546.615 117.64 544.855 120.52 542.935 122.76C541.015 124.893 538.828 126.44 536.375 127.4C534.028 128.467 531.255 129 528.055 129C522.722 129 518.882 127.613 516.535 124.84C514.295 121.96 513.175 117.267 513.175 110.76C513.175 106.387 513.602 101.48 514.455 96.04C515.415 90.6 516.642 84.9467 518.135 79.08C519.735 73.2133 521.548 67.3467 523.575 61.48C525.602 55.5067 527.735 49.9067 529.975 44.68C532.322 39.4533 534.668 34.8133 537.015 30.76C539.468 26.6 541.815 23.4 544.055 21.16C546.295 18.92 548.855 17.16 551.735 15.88C554.615 14.6 557.442 13.96 560.215 13.96C566.295 13.96 572.162 17.1067 577.815 23.4C583.575 29.5867 588.802 38.6533 593.495 50.6C594.775 53.6933 596.055 57.2133 597.335 61.16C598.615 65 599.895 69 601.175 73.16C602.455 77.32 603.682 81.5333 604.855 85.8C606.028 89.96 607.042 93.9067 607.895 97.64C608.748 101.267 609.442 104.52 609.975 107.4C610.508 110.173 610.775 112.36 610.775 113.96C610.775 118.12 609.015 121.587 605.495 124.36C602.082 127.027 597.655 128.36 592.215 128.36C588.162 128.36 584.802 127.667 582.135 126.28C579.575 124.893 577.388 123.027 575.575 120.68C573.868 118.227 572.482 115.347 571.415 112.04C570.455 108.733 569.548 105.16 568.695 101.32C566.242 102.173 564.215 102.707 562.615 102.92C561.122 103.027 559.948 103.08 559.095 103.08C558.242 103.08 557.335 103.027 556.375 102.92C555.415 102.707 554.242 102.227 552.855 101.48ZM561.015 53.8C560.162 53.8 559.415 54.3333 558.775 55.4C558.135 56.4667 557.602 57.8 557.175 59.4C556.855 61 556.588 62.7067 556.375 64.52C556.162 66.3333 556.055 67.9867 556.055 69.48C556.055 74.1733 557.762 76.52 561.175 76.52C564.375 76.52 565.975 74.3333 565.975 69.96C565.975 68.4667 565.868 66.8133 565.655 65C565.442 63.08 565.122 61.32 564.695 59.72C564.375 58.0133 563.895 56.6267 563.255 55.56C562.615 54.3867 561.868 53.8 561.015 53.8ZM275.56 215.16C275.56 212.28 275.453 208.92 275.24 205.08C275.133 201.133 275.133 196.92 275.24 192.44C275.347 187.96 275.613 183.267 276.04 178.36C276.467 173.347 277.213 168.28 278.28 163.16C279.027 159.96 279.88 157.293 280.84 155.16C281.8 153.027 282.92 151.32 284.2 150.04C285.48 148.76 286.92 147.907 288.52 147.48C290.12 146.947 291.933 146.68 293.96 146.68C299.507 146.68 303.56 148.6 306.12 152.44C308.68 156.28 309.96 162.307 309.96 170.52C309.96 175.853 309.587 181.453 308.84 187.32C308.2 193.08 307.88 198.947 307.88 204.92C307.88 210.787 308.36 215 309.32 217.56C309.96 219.16 310.707 220.28 311.56 220.92C312.413 221.56 313.373 221.987 314.44 222.2C315.613 222.307 316.893 222.307 318.28 222.2C319.773 222.093 321.373 222.04 323.08 222.04C325.64 222.04 328.093 222.36 330.44 223C332.893 223.64 335.027 224.653 336.84 226.04C338.76 227.427 340.307 229.293 341.48 231.64C342.653 233.88 343.24 236.6 343.24 239.8C343.24 244.6 342.067 248.227 339.72 250.68C337.373 253.027 334.493 254.733 331.08 255.8C327.773 256.76 324.627 257.56 321.64 258.2C318.76 258.947 315.613 259.32 312.2 259.32C300.68 259.427 291.667 255.853 285.16 248.6C278.76 241.24 275.56 230.093 275.56 215.16ZM373.025 217.08C373.132 219.747 374.412 221.4 376.865 222.04C379.318 222.573 382.305 222.84 385.825 222.84C388.812 222.84 391.958 222.84 395.265 222.84C398.572 222.84 401.558 223.267 404.225 224.12C406.998 224.973 409.292 226.413 411.105 228.44C412.918 230.467 413.825 233.56 413.825 237.72C413.825 251.16 403.372 257.88 382.465 257.88C374.892 257.88 368.438 256.92 363.105 255C357.878 253.08 353.612 250.04 350.305 245.88C347.105 241.613 344.758 236.067 343.265 229.24C341.878 222.307 341.185 213.88 341.185 203.96C341.185 198.627 341.345 193.293 341.665 187.96C342.092 182.627 342.625 177.667 343.265 173.08C343.905 168.493 344.652 164.44 345.505 160.92C346.465 157.4 347.425 154.787 348.385 153.08C350.198 150.093 353.238 147.747 357.505 146.04C361.878 144.227 366.892 143.32 372.545 143.32C375.745 143.32 379.372 143.64 383.425 144.28C387.585 144.813 391.585 145.56 395.425 146.52C399.265 147.373 402.732 148.333 405.825 149.4C409.025 150.467 411.265 151.533 412.545 152.6C415.105 154.627 416.385 158.68 416.385 164.76C416.385 170.52 415.158 174.787 412.705 177.56C410.358 180.227 406.625 181.56 401.505 181.56C397.772 181.56 393.932 181.08 389.985 180.12C386.145 179.053 382.358 178.52 378.625 178.52C376.918 178.52 375.745 178.733 375.105 179.16C374.572 179.48 374.305 180.12 374.305 181.08C374.305 183.107 375.158 184.547 376.865 185.4C378.678 186.147 380.865 186.733 383.425 187.16C386.092 187.48 388.918 187.747 391.905 187.96C394.998 188.173 397.825 188.707 400.385 189.56C403.052 190.307 405.238 191.587 406.945 193.4C408.758 195.213 409.665 197.827 409.665 201.24C409.665 205.827 408.065 209.4 404.865 211.96C401.772 214.52 397.452 215.8 391.905 215.8C390.198 215.8 388.492 215.747 386.785 215.64C385.185 215.427 383.532 215.32 381.825 215.32C378.092 215.32 375.158 215.907 373.025 217.08ZM441.665 146.52C447.212 146.52 451.638 148.013 454.945 151C458.358 153.88 460.065 157.72 460.065 162.52C460.065 163.267 460.012 164.333 459.905 165.72C459.798 167 459.692 168.387 459.585 169.88C459.585 171.267 459.532 172.653 459.425 174.04C459.318 175.427 459.265 176.653 459.265 177.72C459.265 182.2 460.065 185.667 461.665 188.12C463.372 190.573 465.718 191.8 468.705 191.8C471.158 191.8 473.025 191 474.305 189.4C475.585 187.8 476.492 185.933 477.025 183.8C477.558 181.667 477.825 179.48 477.825 177.24C477.932 174.893 477.985 173.08 477.985 171.8C477.985 163.16 479.585 156.44 482.785 151.64C486.092 146.733 490.732 144.28 496.705 144.28C500.865 144.28 504.385 145.453 507.265 147.8C510.145 150.147 512.065 153.347 513.025 157.4C513.558 159.64 513.932 162.68 514.145 166.52C514.465 170.253 514.678 174.2 514.785 178.36C514.998 182.52 515.105 186.52 515.105 190.36C515.105 194.093 515.105 197.08 515.105 199.32C515.105 212.227 514.518 223.107 513.345 231.96C512.278 240.813 510.732 246.787 508.705 249.88C507.425 251.8 505.452 253.293 502.785 254.36C500.225 255.427 497.238 255.96 493.825 255.96C489.985 255.96 486.945 255.32 484.705 254.04C482.465 252.653 480.758 250.893 479.585 248.76C478.518 246.627 477.825 244.28 477.505 241.72C477.292 239.053 477.185 236.44 477.185 233.88C477.185 231.64 477.132 229.453 477.025 227.32C477.025 225.187 476.758 223.32 476.225 221.72C475.798 220.013 475.052 218.68 473.985 217.72C472.918 216.76 471.425 216.28 469.505 216.28C467.478 216.28 465.825 216.813 464.545 217.88C463.372 218.84 462.465 220.173 461.825 221.88C461.185 223.48 460.758 225.347 460.545 227.48C460.332 229.613 460.225 231.8 460.225 234.04C460.225 236.813 460.012 239.48 459.585 242.04C459.265 244.6 458.572 246.893 457.505 248.92C456.438 250.84 454.892 252.387 452.865 253.56C450.945 254.733 448.332 255.32 445.025 255.32C434.678 255.32 428.065 248.76 425.185 235.64C424.012 230.2 423.318 223.747 423.105 216.28C422.892 208.813 422.785 201.24 422.785 193.56C422.785 191.427 422.785 189.293 422.785 187.16C422.785 185.027 422.785 183.053 422.785 181.24C422.892 179.427 422.945 177.827 422.945 176.44C422.945 174.947 422.945 173.827 422.945 173.08C422.945 164.013 424.438 157.347 427.425 153.08C430.518 148.707 435.265 146.52 441.665 146.52ZM546.953 138.84C550.579 138.84 553.406 139.96 555.433 142.2C557.566 144.44 559.166 147.267 560.233 150.68C561.299 154.093 561.993 157.773 562.313 161.72C562.633 165.667 562.793 169.4 562.793 172.92C562.793 181.027 562.259 188.227 561.193 194.52C560.126 200.707 558.633 205.933 556.713 210.2C554.899 214.36 552.713 217.56 550.153 219.8C547.699 221.933 545.033 223 542.153 223C539.486 223 536.926 221.827 534.473 219.48C532.126 217.133 530.046 213.987 528.233 210.04C526.419 205.987 524.979 201.293 523.913 195.96C522.953 190.52 522.473 184.76 522.473 178.68C522.473 172.707 522.899 167.267 523.753 162.36C524.606 157.453 525.993 153.293 527.913 149.88C529.833 146.36 532.339 143.64 535.433 141.72C538.526 139.8 542.366 138.84 546.953 138.84ZM523.433 244.44C523.433 241.987 523.966 239.747 525.033 237.72C526.099 235.693 527.539 233.933 529.353 232.44C531.166 230.947 533.246 229.773 535.593 228.92C537.939 228.067 540.393 227.64 542.953 227.64C545.406 227.64 547.699 228.067 549.833 228.92C552.073 229.667 553.993 230.787 555.593 232.28C557.299 233.773 558.633 235.587 559.593 237.72C560.553 239.747 561.033 241.987 561.033 244.44C561.033 247 560.553 249.347 559.593 251.48C558.633 253.507 557.299 255.267 555.593 256.76C553.886 258.253 551.913 259.427 549.673 260.28C547.433 261.133 545.086 261.56 542.633 261.56C540.073 261.56 537.619 261.08 535.273 260.12C533.033 259.267 531.006 258.093 529.193 256.6C527.486 255.107 526.099 253.293 525.033 251.16C523.966 249.027 523.433 246.787 523.433 244.44Z" fill="#FFB703"/>
</svg>
