<svg width="2142" height="79" viewBox="0 0 2122 79" fill="none" xmlns="http://www.w3.org/2000/svg">
<path d="M0.9 42.2C0.9 36.7333 1.7 31.8333 3.3 27.5C4.96667 23.1 7.3 19.4 10.3 16.4C13.3 13.3333 16.9667 11 21.3 9.4C25.6333 7.73333 30.5 6.89999 35.9 6.89999C41.5667 6.89999 45.8667 8 48.8 10.2C51.8 12.4 53.3 15.6 53.3 19.8C53.3 21.6667 52.9333 23.1667 52.2 24.3C51.5333 25.3667 50.4333 26.2 48.9 26.8C47.3667 27.3333 45.4 27.6667 43 27.8C40.6 27.9333 37.7 28 34.3 28C33.0333 28 31.6667 28.1667 30.2 28.5C28.8 28.7667 27.5 29.4 26.3 30.4C25.1 31.3333 24.1 32.7 23.3 34.5C22.5 36.3 22.1 38.7 22.1 41.7C22.1 46.5667 22.7667 50.1667 24.1 52.5C25.4333 54.8333 27.9667 56 31.7 56C34.2333 56 35.8333 55.7667 36.5 55.3C37.1667 54.7667 37.5 53.9 37.5 52.7C37.5 51.5667 37.2 50.9 36.6 50.7C36 50.4333 35.2333 50.3 34.3 50.3C33.5667 50.3 32.7667 50.2667 31.9 50.2C31.1 50.1333 30.3667 49.8667 29.7 49.4C29.0333 48.8667 28.4667 48.0667 28 47C27.6 45.8667 27.4 44.2333 27.4 42.1C27.4 39.3667 28.1 37.4 29.5 36.2C30.9667 34.9333 33.3 34.3 36.5 34.3C41.2333 34.3 44.9333 34.9333 47.6 36.2C50.3333 37.4 52.3 38.7333 53.5 40.2C54.3 41.1333 54.8667 42.6333 55.2 44.7C55.6 46.7 55.8 49.4333 55.8 52.9C55.8 56.9 55.1333 60.3333 53.8 63.2C52.4667 66.0667 50.6333 68.4333 48.3 70.3C45.9667 72.1 43.2 73.4667 40 74.4C36.8 75.2667 33.3333 75.7 29.6 75.7C24.2667 75.7 19.7667 74.9667 16.1 73.5C12.4333 71.9667 9.46667 69.8 7.2 67C5 64.1333 3.4 60.6333 2.4 56.5C1.4 52.3 0.9 47.5333 0.9 42.2ZM56.957 40.6C56.957 34.6667 57.657 29.4667 59.057 25C60.457 20.4667 62.3904 16.6667 64.857 13.6C67.3904 10.5333 70.4237 8.23333 73.957 6.7C77.557 5.1 81.4904 4.3 85.757 4.3C95.4904 4.3 102.49 7.4 106.757 13.6C111.09 19.8 113.257 29.1333 113.257 41.6C113.257 53.6 110.957 62.6333 106.357 68.7C101.757 74.7667 95.157 77.8 86.557 77.8C82.0904 77.8 78.0237 76.9667 74.357 75.3C70.6904 73.6333 67.557 71.2333 64.957 68.1C62.4237 64.9 60.457 61 59.057 56.4C57.657 51.7333 56.957 46.4667 56.957 40.6ZM85.757 27.4C84.8237 27.4 84.057 27.8667 83.457 28.8C82.857 29.6667 82.357 30.8333 81.957 32.3C81.6237 33.7667 81.3904 35.4 81.257 37.2C81.1237 39 81.057 40.8 81.057 42.6C81.057 46.4667 81.557 49.3667 82.557 51.3C83.6237 53.2333 84.9237 54.2 86.457 54.2C87.9904 54.2 89.1237 53.1333 89.857 51C90.657 48.8667 91.057 45.0667 91.057 39.6C91.057 37 90.8904 34.9333 90.557 33.4C90.2904 31.8 89.9237 30.5667 89.457 29.7C88.9904 28.7667 88.4237 28.1667 87.757 27.9C87.157 27.5667 86.4904 27.4 85.757 27.4ZM117.211 40.6C117.211 34.6667 117.911 29.4667 119.311 25C120.711 20.4667 122.644 16.6667 125.111 13.6C127.644 10.5333 130.678 8.23333 134.211 6.7C137.811 5.1 141.744 4.3 146.011 4.3C155.744 4.3 162.744 7.4 167.011 13.6C171.344 19.8 173.511 29.1333 173.511 41.6C173.511 53.6 171.211 62.6333 166.611 68.7C162.011 74.7667 155.411 77.8 146.811 77.8C142.344 77.8 138.278 76.9667 134.611 75.3C130.944 73.6333 127.811 71.2333 125.211 68.1C122.678 64.9 120.711 61 119.311 56.4C117.911 51.7333 117.211 46.4667 117.211 40.6ZM146.011 27.4C145.078 27.4 144.311 27.8667 143.711 28.8C143.111 29.6667 142.611 30.8333 142.211 32.3C141.878 33.7667 141.644 35.4 141.511 37.2C141.378 39 141.311 40.8 141.311 42.6C141.311 46.4667 141.811 49.3667 142.811 51.3C143.878 53.2333 145.178 54.2 146.711 54.2C148.244 54.2 149.378 53.1333 150.111 51C150.911 48.8667 151.311 45.0667 151.311 39.6C151.311 37 151.144 34.9333 150.811 33.4C150.544 31.8 150.178 30.5667 149.711 29.7C149.244 28.7667 148.678 28.1667 148.011 27.9C147.411 27.5667 146.744 27.4 146.011 27.4ZM193.565 6.8C199.632 6.8 205.065 7.4 209.865 8.6C214.665 9.8 218.732 11.7667 222.065 14.5C225.398 17.1667 227.932 20.7 229.665 25.1C231.465 29.5 232.365 34.9 232.365 41.3C232.365 47.4333 231.498 52.7667 229.765 57.3C228.032 61.7667 225.498 65.4667 222.165 68.4C218.898 71.2667 214.865 73.4 210.065 74.8C205.332 76.2 199.932 76.9 193.865 76.9C188.532 76.9 184.532 74.3333 181.865 69.2C179.198 64.0667 177.865 56.6333 177.865 46.9C177.865 44.9 177.865 42.6333 177.865 40.1C177.932 37.5 178.065 34.8667 178.265 32.2C178.465 29.5333 178.798 26.9 179.265 24.3C179.732 21.6333 180.398 19.2 181.265 17C182.398 14 183.998 11.5667 186.065 9.69999C188.132 7.76666 190.632 6.8 193.565 6.8ZM203.265 30.2C202.398 30.2 201.698 30.5667 201.165 31.3C200.632 31.9667 200.232 32.8667 199.965 34C199.698 35.0667 199.532 36.3333 199.465 37.8C199.398 39.2 199.365 40.6667 199.365 42.2C199.365 45.4 199.665 48.1333 200.265 50.4C200.865 52.6 201.798 53.8333 203.065 54.1C203.332 54.1667 203.732 54.2 204.265 54.2C205.532 54.2 206.565 53.8 207.365 53C208.165 52.2 208.798 51.2 209.265 50C209.732 48.8 210.065 47.5 210.265 46.1C210.465 44.7 210.565 43.4 210.565 42.2C210.565 40.6667 210.398 39.2 210.065 37.8C209.798 36.3333 209.365 35.0667 208.765 34C208.165 32.8667 207.398 31.9667 206.465 31.3C205.532 30.5667 204.465 30.2 203.265 30.2ZM315.716 44.5C315.049 44.5 314.449 44.7667 313.916 45.3C313.382 45.8333 312.916 46.5333 312.516 47.4C312.116 48.2667 311.716 49.2667 311.316 50.4C310.916 51.5333 310.482 52.6667 310.016 53.8C309.082 55.9333 308.082 57.8667 307.016 59.6C306.016 61.2667 304.749 62.1 303.216 62.1C301.749 62.1 300.482 61.8 299.416 61.2C298.349 60.6 297.449 59.8333 296.716 58.9C295.982 57.9 295.349 56.8 294.816 55.6C294.349 54.4 293.949 53.2 293.616 52C293.082 50.1333 292.616 48.5 292.216 47.1C291.882 45.6333 291.349 44.9 290.616 44.9C290.416 44.9 290.182 45.0333 289.916 45.3C289.316 45.9667 288.949 46.9333 288.816 48.2C288.682 49.4 288.649 50.8 288.716 52.4C288.849 54 288.982 55.7333 289.116 57.6C289.316 59.4 289.416 61.2 289.416 63C289.416 64.8667 289.216 66.6 288.816 68.2C288.416 69.8 287.816 71.2 287.016 72.4C286.282 73.6 285.382 74.5333 284.316 75.2C283.249 75.8667 282.016 76.2 280.616 76.2C277.816 76.2 275.549 75.6667 273.816 74.6C272.082 73.5333 270.749 71.8333 269.816 69.5C269.549 68.8333 269.216 67.8 268.816 66.4C268.482 65 268.116 63.3333 267.716 61.4C267.382 59.4 267.082 57.1667 266.816 54.7C266.616 52.1667 266.516 49.5 266.516 46.7C266.516 43.4333 266.516 40.5 266.516 37.9C266.582 35.2333 266.682 32.8 266.816 30.6C266.949 28.3333 267.116 26.2333 267.316 24.3C267.582 22.3 267.916 20.3 268.316 18.3C268.649 16.5 269.282 14.9333 270.216 13.6C271.216 12.2 272.282 11.0333 273.416 10.1C274.616 9.16666 275.849 8.46666 277.116 8C278.382 7.53333 279.482 7.3 280.416 7.3C283.149 7.3 285.516 7.86666 287.516 9C289.516 10.0667 291.216 11.4333 292.616 13.1C294.082 14.7 295.316 16.4667 296.316 18.4C297.316 20.3333 298.182 22.1333 298.916 23.8C299.716 25.4 300.416 26.7667 301.016 27.9C301.682 28.9667 302.382 29.5 303.116 29.5C303.849 29.5 304.549 28.9667 305.216 27.9C305.949 26.7667 306.716 25.3667 307.516 23.7C308.316 21.9667 309.182 20.1333 310.116 18.2C311.116 16.2667 312.249 14.4667 313.516 12.8C314.782 11.0667 316.216 9.66667 317.816 8.6C319.482 7.46666 321.349 6.89999 323.416 6.89999C325.882 6.89999 327.949 7.73333 329.616 9.4C331.349 11.0667 332.749 13.3333 333.816 16.2C334.882 19 335.649 22.3 336.116 26.1C336.582 29.9 336.816 33.9333 336.816 38.2C336.816 43.2 336.749 48 336.616 52.6C336.482 57.2 336.082 61.2667 335.416 64.8C334.749 68.2667 333.749 71.0667 332.416 73.2C331.082 75.2667 329.216 76.3 326.816 76.3C324.416 76.3 322.416 75.9333 320.816 75.2C319.282 74.5333 318.082 73.6 317.216 72.4C316.349 71.2 315.749 69.8 315.416 68.2C315.082 66.6 314.916 64.9 314.916 63.1C314.916 60.5 315.016 58.5333 315.216 57.2C315.482 55.8667 315.716 54.8 315.916 54C316.182 53.1333 316.416 52.4 316.616 51.8C316.882 51.1333 317.016 50.2 317.016 49C317.016 48.6 317.016 48.1333 317.016 47.6C317.016 47.0667 316.982 46.6 316.916 46.2C316.849 45.7333 316.716 45.3333 316.516 45C316.316 44.6667 316.049 44.5 315.716 44.5ZM360.051 51.3C360.117 52.9667 360.917 54 362.451 54.4C363.984 54.7333 365.851 54.9 368.051 54.9C369.917 54.9 371.884 54.9 373.951 54.9C376.017 54.9 377.884 55.1667 379.551 55.7C381.284 56.2333 382.717 57.1333 383.851 58.4C384.984 59.6667 385.551 61.6 385.551 64.2C385.551 72.6 379.017 76.8 365.951 76.8C361.217 76.8 357.184 76.2 353.851 75C350.584 73.8 347.917 71.9 345.851 69.3C343.851 66.6333 342.384 63.1667 341.451 58.9C340.584 54.5667 340.151 49.3 340.151 43.1C340.151 39.7667 340.251 36.4333 340.451 33.1C340.717 29.7667 341.051 26.6667 341.451 23.8C341.851 20.9333 342.317 18.4 342.851 16.2C343.451 14 344.051 12.3667 344.651 11.3C345.784 9.43333 347.684 7.96666 350.351 6.89999C353.084 5.76666 356.217 5.2 359.751 5.2C361.751 5.2 364.017 5.4 366.551 5.8C369.151 6.13333 371.651 6.6 374.051 7.2C376.451 7.73333 378.617 8.33333 380.551 9C382.551 9.66666 383.951 10.3333 384.751 11C386.351 12.2667 387.151 14.8 387.151 18.6C387.151 22.2 386.384 24.8667 384.851 26.6C383.384 28.2667 381.051 29.1 377.851 29.1C375.517 29.1 373.117 28.8 370.651 28.2C368.251 27.5333 365.884 27.2 363.551 27.2C362.484 27.2 361.751 27.3333 361.351 27.6C361.017 27.8 360.851 28.2 360.851 28.8C360.851 30.0667 361.384 30.9667 362.451 31.5C363.584 31.9667 364.951 32.3333 366.551 32.6C368.217 32.8 369.984 32.9667 371.851 33.1C373.784 33.2333 375.551 33.5667 377.151 34.1C378.817 34.5667 380.184 35.3667 381.251 36.5C382.384 37.6333 382.951 39.2667 382.951 41.4C382.951 44.2667 381.951 46.5 379.951 48.1C378.017 49.7 375.317 50.5 371.851 50.5C370.784 50.5 369.717 50.4667 368.651 50.4C367.651 50.2667 366.617 50.2 365.551 50.2C363.217 50.2 361.384 50.5667 360.051 51.3ZM402.951 7.2C406.417 7.2 409.184 8.13333 411.251 10C413.384 11.8 414.451 14.2 414.451 17.2C414.451 17.6667 414.417 18.3333 414.351 19.2C414.284 20 414.217 20.8667 414.151 21.8C414.151 22.6667 414.117 23.5333 414.051 24.4C413.984 25.2667 413.951 26.0333 413.951 26.7C413.951 29.5 414.451 31.6667 415.451 33.2C416.517 34.7333 417.984 35.5 419.851 35.5C421.384 35.5 422.551 35 423.351 34C424.151 33 424.717 31.8333 425.051 30.5C425.384 29.1667 425.551 27.8 425.551 26.4C425.617 24.9333 425.651 23.8 425.651 23C425.651 17.6 426.651 13.4 428.651 10.4C430.717 7.33333 433.617 5.8 437.351 5.8C439.951 5.8 442.151 6.53333 443.951 8C445.751 9.46667 446.951 11.4667 447.551 14C447.884 15.4 448.117 17.3 448.251 19.7C448.451 22.0333 448.584 24.5 448.651 27.1C448.784 29.7 448.851 32.2 448.851 34.6C448.851 36.9333 448.851 38.8 448.851 40.2C448.851 48.2667 448.484 55.0667 447.751 60.6C447.084 66.1333 446.117 69.8667 444.851 71.8C444.051 73 442.817 73.9333 441.151 74.6C439.551 75.2667 437.684 75.6 435.551 75.6C433.151 75.6 431.251 75.2 429.851 74.4C428.451 73.5333 427.384 72.4333 426.651 71.1C425.984 69.7667 425.551 68.3 425.351 66.7C425.217 65.0333 425.151 63.4 425.151 61.8C425.151 60.4 425.117 59.0333 425.051 57.7C425.051 56.3667 424.884 55.2 424.551 54.2C424.284 53.1333 423.817 52.3 423.151 51.7C422.484 51.1 421.551 50.8 420.351 50.8C419.084 50.8 418.051 51.1333 417.251 51.8C416.517 52.4 415.951 53.2333 415.551 54.3C415.151 55.3 414.884 56.4667 414.751 57.8C414.617 59.1333 414.551 60.5 414.551 61.9C414.551 63.6333 414.417 65.3 414.151 66.9C413.951 68.5 413.517 69.9333 412.851 71.2C412.184 72.4 411.217 73.3667 409.951 74.1C408.751 74.8333 407.117 75.2 405.051 75.2C398.584 75.2 394.451 71.1 392.651 62.9C391.917 59.5 391.484 55.4667 391.351 50.8C391.217 46.1333 391.151 41.4 391.151 36.6C391.151 35.2667 391.151 33.9333 391.151 32.6C391.151 31.2667 391.151 30.0333 391.151 28.9C391.217 27.7667 391.251 26.7667 391.251 25.9C391.251 24.9667 391.251 24.2667 391.251 23.8C391.251 18.1333 392.184 13.9667 394.051 11.3C395.984 8.56666 398.951 7.2 402.951 7.2ZM472.255 0.799996C478.922 0.799996 483.989 2.46666 487.455 5.8C490.989 9.13333 492.755 14.1333 492.755 20.8C492.755 24.4 492.322 27.2 491.455 29.2C490.655 31.2 489.622 32.9667 488.355 34.5C487.155 35.9667 485.822 37.4667 484.355 39C482.955 40.5333 481.655 42.6 480.455 45.2C479.989 46.2667 479.489 47.4 478.955 48.6C478.422 49.8 477.755 50.9333 476.955 52C476.222 53 475.289 53.8333 474.155 54.5C473.022 55.1667 471.589 55.5 469.855 55.5C466.989 55.5 464.722 54.6 463.055 52.8C461.389 51 460.555 48.6 460.555 45.6C460.555 43.2667 460.989 41.2 461.855 39.4C462.722 37.5333 463.655 35.8333 464.655 34.3C465.722 32.7 466.689 31.2667 467.555 30C468.422 28.6667 468.855 27.4 468.855 26.2C468.855 25.2 468.455 24.7 467.655 24.7C466.989 24.7 466.355 24.9667 465.755 25.5C465.155 25.9667 464.455 26.5 463.655 27.1C462.922 27.7 462.089 28.2667 461.155 28.8C460.289 29.2667 459.222 29.5 457.955 29.5C455.822 29.5 454.189 28.7 453.055 27.1C451.922 25.4333 451.355 23.1 451.355 20.1C451.355 17.3667 451.789 14.8333 452.655 12.5C453.522 10.1667 454.822 8.13333 456.555 6.4C458.355 4.66666 460.555 3.3 463.155 2.29999C465.755 1.3 468.789 0.799996 472.255 0.799996ZM457.855 67.7C457.855 66.2333 458.155 64.8667 458.755 63.6C459.422 62.3333 460.289 61.2333 461.355 60.3C462.489 59.3 463.789 58.5333 465.255 58C466.722 57.4667 468.289 57.2 469.955 57.2C471.555 57.2 473.055 57.4667 474.455 58C475.855 58.5333 477.055 59.2667 478.055 60.2C479.122 61.1333 479.922 62.2333 480.455 63.5C481.055 64.7667 481.355 66.1667 481.355 67.7C481.355 69.1667 481.055 70.5667 480.455 71.9C479.855 73.2333 479.055 74.3667 478.055 75.3C477.055 76.2333 475.855 76.9667 474.455 77.5C473.055 78.1 471.555 78.4 469.955 78.4C468.355 78.4 466.822 78.1 465.355 77.5C463.889 76.9667 462.589 76.2 461.455 75.2C460.389 74.2667 459.522 73.1667 458.855 71.9C458.189 70.5667 457.855 69.1667 457.855 67.7ZM547.348 57.8C548.682 57.8 549.915 57.3667 551.048 56.5C552.248 55.5667 552.848 54.5667 552.848 53.5C552.848 52.4333 552.282 51.4667 551.148 50.6C550.082 49.6667 548.682 48.7 546.948 47.7C545.282 46.7 543.482 45.6 541.548 44.4C539.615 43.1333 537.782 41.6333 536.048 39.9C534.382 38.1667 532.982 36.1333 531.848 33.8C530.782 31.4 530.248 28.6 530.248 25.4C530.248 22.4 530.782 19.7 531.848 17.3C532.982 14.9 534.548 12.8667 536.548 11.2C538.615 9.46666 541.082 8.16666 543.948 7.3C546.815 6.36666 550.048 5.9 553.648 5.9C557.048 5.9 560.148 6.33333 562.948 7.2C565.815 8 568.248 9.13333 570.248 10.6C572.315 12.0667 573.915 13.8333 575.048 15.9C576.182 17.9 576.748 20.1333 576.748 22.6C576.748 25.6667 575.915 28.2 574.248 30.2C572.582 32.2 570.448 33.2 567.848 33.2C566.115 33.2 564.948 32.8 564.348 32C563.748 31.2 563.248 30.3333 562.848 29.4C562.515 28.4 562.082 27.5 561.548 26.7C561.015 25.9 559.982 25.5 558.448 25.5C555.848 25.5 554.548 26.7 554.548 29.1C554.548 30.7 555.082 31.9667 556.148 32.9C557.282 33.8333 558.648 34.7 560.248 35.5C561.848 36.2333 563.615 37.0333 565.548 37.9C567.482 38.7 569.248 39.7667 570.848 41.1C572.448 42.4333 573.782 44.1333 574.848 46.2C575.982 48.2667 576.548 50.9333 576.548 54.2C576.548 70.1333 567.482 78.1 549.348 78.1C546.015 78.1 542.948 77.7 540.148 76.9C537.415 76.1 535.048 74.9333 533.048 73.4C531.115 71.8 529.582 69.8667 528.448 67.6C527.382 65.2667 526.848 62.6 526.848 59.6C526.848 55.8 527.648 52.9 529.248 50.9C530.848 48.9 533.248 47.9 536.448 47.9C537.848 47.9 539.048 48.1667 540.048 48.7C541.048 49.2333 541.548 50.0333 541.548 51.1C541.548 52.8333 542.082 54.4 543.148 55.8C544.215 57.1333 545.615 57.8 547.348 57.8ZM591.592 5.8C593.659 5.8 595.392 5.96666 596.792 6.3C598.192 6.63333 599.326 7.26666 600.192 8.2C601.059 9.06666 601.692 10.3333 602.092 12C602.492 13.6 602.692 15.7 602.692 18.3C602.692 21.4333 602.592 24.5333 602.392 27.6C602.192 30.6 602.092 33.6333 602.092 36.7C602.092 38.1 602.159 39.7667 602.292 41.7C602.492 43.6333 602.826 45.5 603.292 47.3C603.759 49.0333 604.426 50.5333 605.292 51.8C606.159 53 607.326 53.6 608.792 53.6C610.259 53.6 611.426 53.1667 612.292 52.3C613.159 51.4333 613.792 50.3333 614.192 49C614.659 47.6667 614.959 46.2333 615.092 44.7C615.226 43.1667 615.292 41.7333 615.292 40.4C615.292 37 615.159 33.6 614.892 30.2C614.626 26.8 614.492 23.3667 614.492 19.9C614.492 18.3 614.559 16.6667 614.692 15C614.826 13.3333 615.159 11.8333 615.692 10.5C616.292 9.1 617.192 7.96667 618.392 7.1C619.592 6.23333 621.259 5.8 623.392 5.8C626.726 5.8 629.292 6.36666 631.092 7.5C632.959 8.56666 634.326 10.0333 635.192 11.9C636.126 13.7667 636.659 15.9 636.792 18.3C636.992 20.7 637.092 23.1667 637.092 25.7C637.092 28.6333 636.992 31.6 636.792 34.6C636.592 37.6 636.459 40.3667 636.392 42.9C636.392 45.4333 636.259 47.9333 635.992 50.4C635.726 52.8 635.292 55.2667 634.692 57.8C634.092 60.2667 633.192 63 631.992 66C631.259 67.8 630.126 69.4333 628.592 70.9C627.059 72.3667 625.226 73.6 623.092 74.6C621.026 75.6 618.692 76.3667 616.092 76.9C613.559 77.4333 610.892 77.7 608.092 77.7C605.759 77.7 603.492 77.5333 601.292 77.2C599.092 76.9333 597.026 76.4 595.092 75.6C593.226 74.8 591.459 73.6667 589.792 72.2C588.192 70.7333 586.759 68.8667 585.492 66.6C584.092 64.0667 582.992 61.2333 582.192 58.1C581.392 54.9667 580.792 51.8 580.392 48.6C579.992 45.4 579.726 42.2667 579.592 39.2C579.526 36.1333 579.492 33.3667 579.492 30.9C579.492 29.4333 579.526 27.7 579.592 25.7C579.726 23.7 579.926 21.7 580.192 19.7C580.459 17.6333 580.826 15.6667 581.292 13.8C581.759 11.8667 582.359 10.2667 583.092 9C584.292 6.86666 587.126 5.8 591.592 5.8ZM639.363 39.6C639.363 34.7333 639.463 30.3333 639.663 26.4C639.929 22.4 640.729 19 642.063 16.2C643.463 13.3333 645.596 11.1333 648.463 9.6C651.396 8.06666 655.563 7.3 660.963 7.3C665.363 7.3 669.396 7.6 673.063 8.2C676.729 8.8 679.863 9.86666 682.463 11.4C685.129 12.8667 687.196 14.9 688.663 17.5C690.129 20.1 690.862 23.3667 690.862 27.3C690.862 31.3667 690.529 34.4667 689.863 36.6C689.196 38.7333 688.429 40.3333 687.563 41.4C686.763 42.4667 686.029 43.2333 685.363 43.7C684.696 44.1 684.363 44.6667 684.363 45.4C684.363 46.5333 684.796 47.8667 685.663 49.4C686.529 50.9333 687.463 52.7 688.463 54.7C689.463 56.6333 690.396 58.8 691.263 61.2C692.129 63.6 692.563 66.2 692.563 69C692.563 70.3333 692.163 71.5 691.363 72.5C690.563 73.4333 689.563 74.2333 688.363 74.9C687.163 75.5667 685.896 76.0333 684.563 76.3C683.229 76.6333 682.063 76.8 681.063 76.8C677.996 76.8 675.463 76.4667 673.463 75.8C671.529 75.2 670.129 74.1667 669.263 72.7C668.929 72.1667 668.663 71.3 668.463 70.1C668.263 68.9 668.096 67.5667 667.963 66.1C667.829 64.5667 667.663 63.0333 667.462 61.5C667.263 59.9 667.029 58.4667 666.763 57.2C666.496 55.8667 666.129 54.8 665.663 54C665.263 53.1333 664.729 52.7 664.063 52.7C663.463 52.7 663.096 53.1333 662.963 54C662.829 54.8667 662.796 55.9333 662.863 57.2C662.996 58.4 663.129 59.6667 663.263 61C663.463 62.2667 663.563 63.3 663.563 64.1C663.563 65.1 663.429 66.3 663.163 67.7C662.963 69.1 662.496 70.4667 661.763 71.8C661.096 73.0667 660.096 74.1667 658.763 75.1C657.429 76.0333 655.696 76.5 653.563 76.5C651.496 76.5 649.496 75.9333 647.563 74.8C645.629 73.6667 644.296 72.0667 643.563 70C642.763 67.7333 642.096 65.3333 641.563 62.8C641.029 60.2667 640.596 57.6667 640.263 55C639.929 52.3333 639.696 49.7 639.563 47.1C639.429 44.5 639.363 42 639.363 39.6ZM666.263 26.4C664.929 26.4 663.829 26.9333 662.963 28C662.163 29 661.763 30 661.763 31C661.763 32.5333 662.196 33.7 663.062 34.5C663.929 35.3 664.963 35.7 666.163 35.7C667.429 35.7 668.496 35.3667 669.363 34.7C670.296 33.9667 670.763 32.5333 670.763 30.4C670.763 29.6667 670.596 29.0333 670.263 28.5C669.929 27.9667 669.529 27.5667 669.063 27.3C668.663 26.9667 668.196 26.7333 667.663 26.6C667.129 26.4667 666.663 26.4 666.263 26.4ZM714.641 51.3C714.707 52.9667 715.507 54 717.041 54.4C718.574 54.7333 720.441 54.9 722.641 54.9C724.507 54.9 726.474 54.9 728.541 54.9C730.607 54.9 732.474 55.1667 734.141 55.7C735.874 56.2333 737.307 57.1333 738.441 58.4C739.574 59.6667 740.141 61.6 740.141 64.2C740.141 72.6 733.607 76.8 720.541 76.8C715.807 76.8 711.774 76.2 708.441 75C705.174 73.8 702.507 71.9 700.441 69.3C698.441 66.6333 696.974 63.1667 696.041 58.9C695.174 54.5667 694.741 49.3 694.741 43.1C694.741 39.7667 694.841 36.4333 695.041 33.1C695.307 29.7667 695.641 26.6667 696.041 23.8C696.441 20.9333 696.907 18.4 697.441 16.2C698.041 14 698.641 12.3667 699.241 11.3C700.374 9.43333 702.274 7.96666 704.941 6.89999C707.674 5.76666 710.807 5.2 714.341 5.2C716.341 5.2 718.607 5.4 721.141 5.8C723.741 6.13333 726.241 6.6 728.641 7.2C731.041 7.73333 733.207 8.33333 735.141 9C737.141 9.66666 738.541 10.3333 739.341 11C740.941 12.2667 741.741 14.8 741.741 18.6C741.741 22.2 740.974 24.8667 739.441 26.6C737.974 28.2667 735.641 29.1 732.441 29.1C730.107 29.1 727.707 28.8 725.241 28.2C722.841 27.5333 720.474 27.2 718.141 27.2C717.074 27.2 716.341 27.3333 715.941 27.6C715.607 27.8 715.441 28.2 715.441 28.8C715.441 30.0667 715.974 30.9667 717.041 31.5C718.174 31.9667 719.541 32.3333 721.141 32.6C722.807 32.8 724.574 32.9667 726.441 33.1C728.374 33.2333 730.141 33.5667 731.741 34.1C733.407 34.5667 734.774 35.3667 735.841 36.5C736.974 37.6333 737.541 39.2667 737.541 41.4C737.541 44.2667 736.541 46.5 734.541 48.1C732.607 49.7 729.907 50.5 726.441 50.5C725.374 50.5 724.307 50.4667 723.241 50.4C722.241 50.2667 721.207 50.2 720.141 50.2C717.807 50.2 715.974 50.5667 714.641 51.3ZM775.902 40.6C775.902 34.6667 776.602 29.4667 778.002 25C779.402 20.4667 781.336 16.6667 783.802 13.6C786.336 10.5333 789.369 8.23333 792.902 6.7C796.502 5.1 800.436 4.3 804.702 4.3C814.436 4.3 821.436 7.4 825.702 13.6C830.036 19.8 832.202 29.1333 832.202 41.6C832.202 53.6 829.902 62.6333 825.302 68.7C820.702 74.7667 814.102 77.8 805.502 77.8C801.036 77.8 796.969 76.9667 793.302 75.3C789.636 73.6333 786.502 71.2333 783.902 68.1C781.369 64.9 779.402 61 778.002 56.4C776.602 51.7333 775.902 46.4667 775.902 40.6ZM804.702 27.4C803.769 27.4 803.002 27.8667 802.402 28.8C801.802 29.6667 801.302 30.8333 800.902 32.3C800.569 33.7667 800.336 35.4 800.202 37.2C800.069 39 800.002 40.8 800.002 42.6C800.002 46.4667 800.502 49.3667 801.502 51.3C802.569 53.2333 803.869 54.2 805.402 54.2C806.936 54.2 808.069 53.1333 808.802 51C809.602 48.8667 810.002 45.0667 810.002 39.6C810.002 37 809.836 34.9333 809.502 33.4C809.236 31.8 808.869 30.5667 808.402 29.7C807.936 28.7667 807.369 28.1667 806.702 27.9C806.102 27.5667 805.436 27.4 804.702 27.4ZM835.456 39.6C835.456 34.7333 835.556 30.3333 835.756 26.4C836.023 22.4 836.823 19 838.156 16.2C839.556 13.3333 841.69 11.1333 844.556 9.6C847.49 8.06666 851.656 7.3 857.056 7.3C861.456 7.3 865.49 7.6 869.156 8.2C872.823 8.8 875.956 9.86666 878.556 11.4C881.223 12.8667 883.29 14.9 884.756 17.5C886.223 20.1 886.956 23.3667 886.956 27.3C886.956 31.3667 886.623 34.4667 885.956 36.6C885.29 38.7333 884.523 40.3333 883.656 41.4C882.856 42.4667 882.123 43.2333 881.456 43.7C880.79 44.1 880.456 44.6667 880.456 45.4C880.456 46.5333 880.89 47.8667 881.756 49.4C882.623 50.9333 883.556 52.7 884.556 54.7C885.556 56.6333 886.49 58.8 887.356 61.2C888.223 63.6 888.656 66.2 888.656 69C888.656 70.3333 888.256 71.5 887.456 72.5C886.656 73.4333 885.656 74.2333 884.456 74.9C883.256 75.5667 881.99 76.0333 880.656 76.3C879.323 76.6333 878.156 76.8 877.156 76.8C874.09 76.8 871.556 76.4667 869.556 75.8C867.623 75.2 866.223 74.1667 865.356 72.7C865.023 72.1667 864.756 71.3 864.556 70.1C864.356 68.9 864.19 67.5667 864.056 66.1C863.923 64.5667 863.756 63.0333 863.556 61.5C863.356 59.9 863.123 58.4667 862.856 57.2C862.59 55.8667 862.223 54.8 861.756 54C861.356 53.1333 860.823 52.7 860.156 52.7C859.556 52.7 859.19 53.1333 859.056 54C858.923 54.8667 858.89 55.9333 858.956 57.2C859.09 58.4 859.223 59.6667 859.356 61C859.556 62.2667 859.656 63.3 859.656 64.1C859.656 65.1 859.523 66.3 859.256 67.7C859.056 69.1 858.59 70.4667 857.856 71.8C857.19 73.0667 856.19 74.1667 854.856 75.1C853.523 76.0333 851.79 76.5 849.656 76.5C847.59 76.5 845.59 75.9333 843.656 74.8C841.723 73.6667 840.39 72.0667 839.656 70C838.856 67.7333 838.19 65.3333 837.656 62.8C837.123 60.2667 836.69 57.6667 836.356 55C836.023 52.3333 835.79 49.7 835.656 47.1C835.523 44.5 835.456 42 835.456 39.6ZM862.356 26.4C861.023 26.4 859.923 26.9333 859.056 28C858.256 29 857.856 30 857.856 31C857.856 32.5333 858.29 33.7 859.156 34.5C860.023 35.3 861.056 35.7 862.256 35.7C863.523 35.7 864.59 35.3667 865.456 34.7C866.39 33.9667 866.856 32.5333 866.856 30.4C866.856 29.6667 866.69 29.0333 866.356 28.5C866.023 27.9667 865.623 27.5667 865.156 27.3C864.756 26.9667 864.29 26.7333 863.756 26.6C863.223 26.4667 862.756 26.4 862.356 26.4ZM942.096 46C941.829 46 941.596 46.1667 941.396 46.5C941.263 46.8333 941.129 47.2333 940.996 47.7C940.929 48.1 940.863 48.5333 940.796 49C940.729 49.4667 940.696 49.8333 940.696 50.1C940.563 51.5667 940.629 52.9667 940.896 54.3C941.163 55.6333 941.496 56.9333 941.896 58.2C942.296 59.4667 942.663 60.7667 942.996 62.1C943.329 63.3667 943.496 64.7333 943.496 66.2C943.496 67.3333 943.329 68.5 942.996 69.7C942.663 70.9 942.129 72 941.396 73C940.729 73.9333 939.863 74.7 938.796 75.3C937.729 75.9 936.496 76.2 935.096 76.2C934.696 76.2 934.296 76.1667 933.896 76.1C933.563 76.1 933.229 76.1 932.896 76.1C929.496 75.9 927.129 74.8333 925.796 72.9C924.529 70.9667 923.663 68.4667 923.196 65.4C922.396 60 921.863 54.5333 921.596 49C921.396 43.4 921.296 37.9 921.296 32.5C921.296 30.4333 921.296 27.9 921.296 24.9C921.296 21.8333 921.596 18.9 922.196 16.1C922.796 13.2333 923.829 10.8 925.296 8.79999C926.763 6.8 928.963 5.8 931.896 5.8C934.963 5.8 937.429 6.33333 939.296 7.39999C941.163 8.46666 942.996 10.3667 944.796 13.1C945.863 14.7 946.729 16.0333 947.396 17.1C948.063 18.1667 948.663 19.2 949.196 20.2C949.796 21.1333 950.329 22.2 950.796 23.4C951.263 24.5333 951.829 26 952.496 27.8C952.696 28.4 952.963 29.2667 953.296 30.4C953.696 31.4667 954.129 32.5667 954.596 33.7C955.063 34.7667 955.563 35.7 956.096 36.5C956.629 37.3 957.129 37.7 957.596 37.7C958.196 37.7 958.563 37.2667 958.696 36.4C958.896 35.5333 958.996 34.8333 958.996 34.3C958.996 32.5667 958.829 31.1 958.496 29.9C958.229 28.7 957.896 27.5333 957.496 26.4C957.163 25.2667 956.829 24.1 956.496 22.9C956.229 21.6333 956.096 20.1667 956.096 18.5C956.096 17.3 956.196 15.9333 956.396 14.4C956.596 12.8667 957.029 11.4333 957.696 10.1C958.363 8.7 959.296 7.56666 960.496 6.7C961.763 5.76666 963.429 5.3 965.496 5.3C967.563 5.3 969.263 5.7 970.596 6.49999C971.996 7.23333 973.129 8.2 973.996 9.4C974.863 10.6 975.496 11.9667 975.896 13.5C976.363 15.0333 976.696 16.5667 976.896 18.1C977.563 22.8333 977.929 27.4667 977.996 32C978.129 36.5333 978.196 41.2 978.196 46C978.196 50 978.163 53.9667 978.096 57.9C978.029 61.8333 977.296 65.5 975.896 68.9C975.163 70.7667 973.929 72.4 972.196 73.8C970.529 75.2 968.029 75.9 964.696 75.9C962.429 75.9 960.363 75.1667 958.496 73.7C956.696 72.2333 955.096 70.4 953.696 68.2C952.296 65.9333 951.029 63.5333 949.896 61C948.829 58.4 947.829 56 946.896 53.8C945.963 51.5333 945.096 49.6667 944.296 48.2C943.563 46.7333 942.829 46 942.096 46ZM982.543 40.6C982.543 34.6667 983.243 29.4667 984.643 25C986.043 20.4667 987.976 16.6667 990.443 13.6C992.976 10.5333 996.01 8.23333 999.543 6.7C1003.14 5.1 1007.08 4.3 1011.34 4.3C1021.08 4.3 1028.08 7.4 1032.34 13.6C1036.68 19.8 1038.84 29.1333 1038.84 41.6C1038.84 53.6 1036.54 62.6333 1031.94 68.7C1027.34 74.7667 1020.74 77.8 1012.14 77.8C1007.68 77.8 1003.61 76.9667 999.943 75.3C996.276 73.6333 993.143 71.2333 990.543 68.1C988.01 64.9 986.043 61 984.643 56.4C983.243 51.7333 982.543 46.4667 982.543 40.6ZM1011.34 27.4C1010.41 27.4 1009.64 27.8667 1009.04 28.8C1008.44 29.6667 1007.94 30.8333 1007.54 32.3C1007.21 33.7667 1006.98 35.4 1006.84 37.2C1006.71 39 1006.64 40.8 1006.64 42.6C1006.64 46.4667 1007.14 49.3667 1008.14 51.3C1009.21 53.2333 1010.51 54.2 1012.04 54.2C1013.58 54.2 1014.71 53.1333 1015.44 51C1016.24 48.8667 1016.64 45.0667 1016.64 39.6C1016.64 37 1016.48 34.9333 1016.14 33.4C1015.88 31.8 1015.51 30.5667 1015.04 29.7C1014.58 28.7667 1014.01 28.1667 1013.34 27.9C1012.74 27.5667 1012.08 27.4 1011.34 27.4ZM1046.94 7C1051 6.4 1055 6.06666 1058.94 5.99999C1062.87 5.86666 1066.87 5.8 1070.94 5.8C1073.74 5.8 1076.17 6 1078.24 6.4C1080.37 6.73333 1082 7.06666 1083.14 7.39999C1085.4 7.99999 1087.14 9.26666 1088.34 11.2C1089.6 13.0667 1090.24 15.4667 1090.24 18.4C1090.24 20 1089.84 21.3333 1089.04 22.4C1088.3 23.4 1087.37 24.2667 1086.24 25C1085.1 25.6667 1083.87 26.2 1082.54 26.6C1081.2 26.9333 1079.97 27.2333 1078.84 27.5C1077.1 27.9 1075.97 29.1333 1075.44 31.2C1074.97 33.2 1074.74 36.1 1074.74 39.9C1074.74 42.0333 1074.87 44 1075.14 45.8C1075.4 47.5333 1075.7 49.2333 1076.04 50.9C1076.44 52.5667 1076.77 54.2667 1077.04 56C1077.3 57.7333 1077.44 59.6333 1077.44 61.7C1077.44 63.7 1077.27 65.5667 1076.94 67.3C1076.6 69.0333 1075.97 70.5667 1075.04 71.9C1074.17 73.1667 1073 74.2 1071.54 75C1070.07 75.7333 1068.17 76.1 1065.84 76.1C1061.3 76.1 1057.87 74.6333 1055.54 71.7C1053.27 68.7667 1052.14 64.7333 1052.14 59.6C1052.14 57.8667 1052.2 56.3333 1052.34 55C1052.54 53.6 1052.7 52.3 1052.84 51.1C1053.04 49.8333 1053.2 48.5667 1053.34 47.3C1053.54 46.0333 1053.64 44.6333 1053.64 43.1C1053.64 39.8333 1053.57 37.2333 1053.44 35.3C1053.37 33.3 1053.17 31.8 1052.84 30.8C1052.5 29.7333 1051.97 29.0333 1051.24 28.7C1050.57 28.3667 1049.64 28.2 1048.44 28.2C1047.57 28.2 1046.6 28 1045.54 27.6C1044.54 27.1333 1043.6 26.4667 1042.74 25.6C1041.87 24.6667 1041.14 23.5333 1040.54 22.2C1039.94 20.8667 1039.64 19.3 1039.64 17.5C1039.64 15.5 1039.77 13.8667 1040.04 12.6C1040.37 11.2667 1040.84 10.2333 1041.44 9.5C1042.1 8.7 1042.87 8.13333 1043.74 7.79999C1044.67 7.46666 1045.74 7.2 1046.94 7ZM1112.1 0.799996C1118.77 0.799996 1123.83 2.46666 1127.3 5.8C1130.83 9.13333 1132.6 14.1333 1132.6 20.8C1132.6 24.4 1132.17 27.2 1131.3 29.2C1130.5 31.2 1129.47 32.9667 1128.2 34.5C1127 35.9667 1125.67 37.4667 1124.2 39C1122.8 40.5333 1121.5 42.6 1120.3 45.2C1119.83 46.2667 1119.33 47.4 1118.8 48.6C1118.27 49.8 1117.6 50.9333 1116.8 52C1116.07 53 1115.13 53.8333 1114 54.5C1112.87 55.1667 1111.43 55.5 1109.7 55.5C1106.83 55.5 1104.57 54.6 1102.9 52.8C1101.23 51 1100.4 48.6 1100.4 45.6C1100.4 43.2667 1100.83 41.2 1101.7 39.4C1102.57 37.5333 1103.5 35.8333 1104.5 34.3C1105.57 32.7 1106.53 31.2667 1107.4 30C1108.27 28.6667 1108.7 27.4 1108.7 26.2C1108.7 25.2 1108.3 24.7 1107.5 24.7C1106.83 24.7 1106.2 24.9667 1105.6 25.5C1105 25.9667 1104.3 26.5 1103.5 27.1C1102.77 27.7 1101.93 28.2667 1101 28.8C1100.13 29.2667 1099.07 29.5 1097.8 29.5C1095.67 29.5 1094.03 28.7 1092.9 27.1C1091.77 25.4333 1091.2 23.1 1091.2 20.1C1091.2 17.3667 1091.63 14.8333 1092.5 12.5C1093.37 10.1667 1094.67 8.13333 1096.4 6.4C1098.2 4.66666 1100.4 3.3 1103 2.29999C1105.6 1.3 1108.63 0.799996 1112.1 0.799996ZM1097.7 67.7C1097.7 66.2333 1098 64.8667 1098.6 63.6C1099.27 62.3333 1100.13 61.2333 1101.2 60.3C1102.33 59.3 1103.63 58.5333 1105.1 58C1106.57 57.4667 1108.13 57.2 1109.8 57.2C1111.4 57.2 1112.9 57.4667 1114.3 58C1115.7 58.5333 1116.9 59.2667 1117.9 60.2C1118.97 61.1333 1119.77 62.2333 1120.3 63.5C1120.9 64.7667 1121.2 66.1667 1121.2 67.7C1121.2 69.1667 1120.9 70.5667 1120.3 71.9C1119.7 73.2333 1118.9 74.3667 1117.9 75.3C1116.9 76.2333 1115.7 76.9667 1114.3 77.5C1112.9 78.1 1111.4 78.4 1109.8 78.4C1108.2 78.4 1106.67 78.1 1105.2 77.5C1103.73 76.9667 1102.43 76.2 1101.3 75.2C1100.23 74.2667 1099.37 73.1667 1098.7 71.9C1098.03 70.5667 1097.7 69.1667 1097.7 67.7ZM1167.29 39.6C1167.29 34.7333 1167.39 30.3333 1167.59 26.4C1167.86 22.4 1168.66 19 1169.99 16.2C1171.39 13.3333 1173.53 11.1333 1176.39 9.6C1179.33 8.06666 1183.49 7.3 1188.89 7.3C1193.29 7.3 1197.33 7.6 1200.99 8.2C1204.66 8.8 1207.79 9.86666 1210.39 11.4C1213.06 12.8667 1215.13 14.9 1216.59 17.5C1218.06 20.1 1218.79 23.3667 1218.79 27.3C1218.79 31.3667 1218.46 34.4667 1217.79 36.6C1217.13 38.7333 1216.36 40.3333 1215.49 41.4C1214.69 42.4667 1213.96 43.2333 1213.29 43.7C1212.63 44.1 1212.29 44.6667 1212.29 45.4C1212.29 46.5333 1212.73 47.8667 1213.59 49.4C1214.46 50.9333 1215.39 52.7 1216.39 54.7C1217.39 56.6333 1218.33 58.8 1219.19 61.2C1220.06 63.6 1220.49 66.2 1220.49 69C1220.49 70.3333 1220.09 71.5 1219.29 72.5C1218.49 73.4333 1217.49 74.2333 1216.29 74.9C1215.09 75.5667 1213.83 76.0333 1212.49 76.3C1211.16 76.6333 1209.99 76.8 1208.99 76.8C1205.93 76.8 1203.39 76.4667 1201.39 75.8C1199.46 75.2 1198.06 74.1667 1197.19 72.7C1196.86 72.1667 1196.59 71.3 1196.39 70.1C1196.19 68.9 1196.03 67.5667 1195.89 66.1C1195.76 64.5667 1195.59 63.0333 1195.39 61.5C1195.19 59.9 1194.96 58.4667 1194.69 57.2C1194.43 55.8667 1194.06 54.8 1193.59 54C1193.19 53.1333 1192.66 52.7 1191.99 52.7C1191.39 52.7 1191.03 53.1333 1190.89 54C1190.76 54.8667 1190.73 55.9333 1190.79 57.2C1190.93 58.4 1191.06 59.6667 1191.19 61C1191.39 62.2667 1191.49 63.3 1191.49 64.1C1191.49 65.1 1191.36 66.3 1191.09 67.7C1190.89 69.1 1190.43 70.4667 1189.69 71.8C1189.03 73.0667 1188.03 74.1667 1186.69 75.1C1185.36 76.0333 1183.63 76.5 1181.49 76.5C1179.43 76.5 1177.43 75.9333 1175.49 74.8C1173.56 73.6667 1172.23 72.0667 1171.49 70C1170.69 67.7333 1170.03 65.3333 1169.49 62.8C1168.96 60.2667 1168.53 57.6667 1168.19 55C1167.86 52.3333 1167.63 49.7 1167.49 47.1C1167.36 44.5 1167.29 42 1167.29 39.6ZM1194.19 26.4C1192.86 26.4 1191.76 26.9333 1190.89 28C1190.09 29 1189.69 30 1189.69 31C1189.69 32.5333 1190.13 33.7 1190.99 34.5C1191.86 35.3 1192.89 35.7 1194.09 35.7C1195.36 35.7 1196.43 35.3667 1197.29 34.7C1198.23 33.9667 1198.69 32.5333 1198.69 30.4C1198.69 29.6667 1198.53 29.0333 1198.19 28.5C1197.86 27.9667 1197.46 27.5667 1196.99 27.3C1196.59 26.9667 1196.13 26.7333 1195.59 26.6C1195.06 26.4667 1194.59 26.4 1194.19 26.4ZM1242.57 51.3C1242.64 52.9667 1243.44 54 1244.97 54.4C1246.5 54.7333 1248.37 54.9 1250.57 54.9C1252.44 54.9 1254.4 54.9 1256.47 54.9C1258.54 54.9 1260.4 55.1667 1262.07 55.7C1263.8 56.2333 1265.24 57.1333 1266.37 58.4C1267.5 59.6667 1268.07 61.6 1268.07 64.2C1268.07 72.6 1261.54 76.8 1248.47 76.8C1243.74 76.8 1239.7 76.2 1236.37 75C1233.1 73.8 1230.44 71.9 1228.37 69.3C1226.37 66.6333 1224.9 63.1667 1223.97 58.9C1223.1 54.5667 1222.67 49.3 1222.67 43.1C1222.67 39.7667 1222.77 36.4333 1222.97 33.1C1223.24 29.7667 1223.57 26.6667 1223.97 23.8C1224.37 20.9333 1224.84 18.4 1225.37 16.2C1225.97 14 1226.57 12.3667 1227.17 11.3C1228.3 9.43333 1230.2 7.96666 1232.87 6.89999C1235.6 5.76666 1238.74 5.2 1242.27 5.2C1244.27 5.2 1246.54 5.4 1249.07 5.8C1251.67 6.13333 1254.17 6.6 1256.57 7.2C1258.97 7.73333 1261.14 8.33333 1263.07 9C1265.07 9.66666 1266.47 10.3333 1267.27 11C1268.87 12.2667 1269.67 14.8 1269.67 18.6C1269.67 22.2 1268.9 24.8667 1267.37 26.6C1265.9 28.2667 1263.57 29.1 1260.37 29.1C1258.04 29.1 1255.64 28.8 1253.17 28.2C1250.77 27.5333 1248.4 27.2 1246.07 27.2C1245 27.2 1244.27 27.3333 1243.87 27.6C1243.54 27.8 1243.37 28.2 1243.37 28.8C1243.37 30.0667 1243.9 30.9667 1244.97 31.5C1246.1 31.9667 1247.47 32.3333 1249.07 32.6C1250.74 32.8 1252.5 32.9667 1254.37 33.1C1256.3 33.2333 1258.07 33.5667 1259.67 34.1C1261.34 34.5667 1262.7 35.3667 1263.77 36.5C1264.9 37.6333 1265.47 39.2667 1265.47 41.4C1265.47 44.2667 1264.47 46.5 1262.47 48.1C1260.54 49.7 1257.84 50.5 1254.37 50.5C1253.3 50.5 1252.24 50.4667 1251.17 50.4C1250.17 50.2667 1249.14 50.2 1248.07 50.2C1245.74 50.2 1243.9 50.5667 1242.57 51.3ZM1296.37 60.3C1295.44 63.3667 1294.47 66 1293.47 68.2C1292.47 70.4 1291.37 72.2 1290.17 73.6C1288.97 74.9333 1287.6 75.9 1286.07 76.5C1284.6 77.1667 1282.87 77.5 1280.87 77.5C1277.54 77.5 1275.14 76.6333 1273.67 74.9C1272.27 73.1 1271.57 70.1667 1271.57 66.1C1271.57 63.3667 1271.84 60.3 1272.37 56.9C1272.97 53.5 1273.74 49.9667 1274.67 46.3C1275.67 42.6333 1276.8 38.9667 1278.07 35.3C1279.34 31.5667 1280.67 28.0667 1282.07 24.8C1283.54 21.5333 1285 18.6333 1286.47 16.1C1288 13.5 1289.47 11.5 1290.87 10.1C1292.27 8.7 1293.87 7.6 1295.67 6.8C1297.47 6 1299.24 5.6 1300.97 5.6C1304.77 5.6 1308.44 7.56666 1311.97 11.5C1315.57 15.3667 1318.84 21.0333 1321.77 28.5C1322.57 30.4333 1323.37 32.6333 1324.17 35.1C1324.97 37.5 1325.77 40 1326.57 42.6C1327.37 45.2 1328.14 47.8333 1328.87 50.5C1329.6 53.1 1330.24 55.5667 1330.77 57.9C1331.3 60.1667 1331.74 62.2 1332.07 64C1332.4 65.7333 1332.57 67.1 1332.57 68.1C1332.57 70.7 1331.47 72.8667 1329.27 74.6C1327.14 76.2667 1324.37 77.1 1320.97 77.1C1318.44 77.1 1316.34 76.6667 1314.67 75.8C1313.07 74.9333 1311.7 73.7667 1310.57 72.3C1309.5 70.7667 1308.64 68.9667 1307.97 66.9C1307.37 64.8333 1306.8 62.6 1306.27 60.2C1304.74 60.7333 1303.47 61.0667 1302.47 61.2C1301.54 61.2667 1300.8 61.3 1300.27 61.3C1299.74 61.3 1299.17 61.2667 1298.57 61.2C1297.97 61.0667 1297.24 60.7667 1296.37 60.3ZM1301.47 30.5C1300.94 30.5 1300.47 30.8333 1300.07 31.5C1299.67 32.1667 1299.34 33 1299.07 34C1298.87 35 1298.7 36.0667 1298.57 37.2C1298.44 38.3333 1298.37 39.3667 1298.37 40.3C1298.37 43.2333 1299.44 44.7 1301.57 44.7C1303.57 44.7 1304.57 43.3333 1304.57 40.6C1304.57 39.6667 1304.5 38.6333 1304.37 37.5C1304.24 36.3 1304.04 35.2 1303.77 34.2C1303.57 33.1333 1303.27 32.2667 1302.87 31.6C1302.47 30.8667 1302 30.5 1301.47 30.5ZM1334.68 50.1C1334.68 48.3 1334.62 46.2 1334.48 43.8C1334.42 41.3333 1334.42 38.7 1334.48 35.9C1334.55 33.1 1334.72 30.1667 1334.98 27.1C1335.25 23.9667 1335.72 20.8 1336.38 17.6C1336.85 15.6 1337.38 13.9333 1337.98 12.6C1338.58 11.2667 1339.28 10.2 1340.08 9.4C1340.88 8.6 1341.78 8.06666 1342.78 7.79999C1343.78 7.46666 1344.92 7.3 1346.18 7.3C1349.65 7.3 1352.18 8.5 1353.78 10.9C1355.38 13.3 1356.18 17.0667 1356.18 22.2C1356.18 25.5333 1355.95 29.0333 1355.48 32.7C1355.08 36.3 1354.88 39.9667 1354.88 43.7C1354.88 47.3667 1355.18 50 1355.78 51.6C1356.18 52.6 1356.65 53.3 1357.18 53.7C1357.72 54.1 1358.32 54.3667 1358.98 54.5C1359.72 54.5667 1360.52 54.5667 1361.38 54.5C1362.32 54.4333 1363.32 54.4 1364.38 54.4C1365.98 54.4 1367.52 54.6 1368.98 55C1370.52 55.4 1371.85 56.0333 1372.98 56.9C1374.18 57.7667 1375.15 58.9333 1375.88 60.4C1376.62 61.8 1376.98 63.5 1376.98 65.5C1376.98 68.5 1376.25 70.7667 1374.78 72.3C1373.32 73.7667 1371.52 74.8333 1369.38 75.5C1367.32 76.1 1365.35 76.6 1363.48 77C1361.68 77.4667 1359.72 77.7 1357.58 77.7C1350.38 77.7667 1344.75 75.5333 1340.68 71C1336.68 66.4 1334.68 59.4333 1334.68 50.1ZM1378.53 50.1C1378.53 48.3 1378.46 46.2 1378.33 43.8C1378.26 41.3333 1378.26 38.7 1378.33 35.9C1378.4 33.1 1378.56 30.1667 1378.83 27.1C1379.1 23.9667 1379.56 20.8 1380.23 17.6C1380.7 15.6 1381.23 13.9333 1381.83 12.6C1382.43 11.2667 1383.13 10.2 1383.93 9.4C1384.73 8.6 1385.63 8.06666 1386.63 7.79999C1387.63 7.46666 1388.76 7.3 1390.03 7.3C1393.5 7.3 1396.03 8.5 1397.63 10.9C1399.23 13.3 1400.03 17.0667 1400.03 22.2C1400.03 25.5333 1399.8 29.0333 1399.33 32.7C1398.93 36.3 1398.73 39.9667 1398.73 43.7C1398.73 47.3667 1399.03 50 1399.63 51.6C1400.03 52.6 1400.5 53.3 1401.03 53.7C1401.56 54.1 1402.16 54.3667 1402.83 54.5C1403.56 54.5667 1404.36 54.5667 1405.23 54.5C1406.16 54.4333 1407.16 54.4 1408.23 54.4C1409.83 54.4 1411.36 54.6 1412.83 55C1414.36 55.4 1415.7 56.0333 1416.83 56.9C1418.03 57.7667 1419 58.9333 1419.73 60.4C1420.46 61.8 1420.83 63.5 1420.83 65.5C1420.83 68.5 1420.1 70.7667 1418.63 72.3C1417.16 73.7667 1415.36 74.8333 1413.23 75.5C1411.16 76.1 1409.2 76.6 1407.33 77C1405.53 77.4667 1403.56 77.7 1401.43 77.7C1394.23 77.7667 1388.6 75.5333 1384.53 71C1380.53 66.4 1378.53 59.4333 1378.53 50.1ZM1423.55 6.2C1428.49 6.2 1432.02 8.4 1434.15 12.8C1434.95 14.4667 1435.59 16.3333 1436.05 18.4C1436.59 20.4 1437.02 22.3 1437.35 24.1C1437.75 25.9 1438.15 27.4 1438.55 28.6C1438.95 29.8 1439.45 30.4 1440.05 30.4C1440.65 30.4 1441.22 29.8 1441.75 28.6C1442.35 27.4 1442.89 25.9667 1443.35 24.3C1443.89 22.5667 1444.42 20.7667 1444.95 18.9C1445.49 16.9667 1446.05 15.2667 1446.65 13.8C1449.05 8.06666 1452.85 5.2 1458.05 5.2C1463.65 5.2 1466.45 8.73333 1466.45 15.8C1466.45 18.9333 1465.92 22.0667 1464.85 25.2C1463.79 28.2667 1462.29 31.1333 1460.35 33.8C1459.35 35.1333 1458.29 36.4667 1457.15 37.8C1456.02 39.0667 1454.95 40.4 1453.95 41.8C1453.02 43.2 1452.22 44.7 1451.55 46.3C1450.89 47.9 1450.55 49.7 1450.55 51.7C1450.55 53.5 1450.75 55.2333 1451.15 56.9C1451.55 58.5667 1451.75 60.6333 1451.75 63.1C1451.75 71.6333 1447.79 75.9 1439.85 75.9C1431.85 75.9 1427.85 71.6333 1427.85 63.1C1427.85 60.7 1428.05 58.7667 1428.45 57.3C1428.85 55.7667 1429.05 54.2667 1429.05 52.8C1429.05 51 1428.65 49.2667 1427.85 47.6C1427.05 45.8667 1426.09 44.2 1424.95 42.6C1423.82 41 1422.65 39.5 1421.45 38.1C1420.25 36.7 1419.25 35.4667 1418.45 34.4C1416.85 32.2 1415.62 29.7 1414.75 26.9C1413.89 24.1 1413.45 21.2 1413.45 18.2C1413.45 10.2 1416.82 6.2 1423.55 6.2ZM1499.14 42.2C1499.14 36.7333 1499.94 31.8333 1501.54 27.5C1503.21 23.1 1505.54 19.4 1508.54 16.4C1511.54 13.3333 1515.21 11 1519.54 9.4C1523.88 7.73333 1528.74 6.89999 1534.14 6.89999C1539.81 6.89999 1544.11 8 1547.04 10.2C1550.04 12.4 1551.54 15.6 1551.54 19.8C1551.54 21.6667 1551.18 23.1667 1550.44 24.3C1549.78 25.3667 1548.68 26.2 1547.14 26.8C1545.61 27.3333 1543.64 27.6667 1541.24 27.8C1538.84 27.9333 1535.94 28 1532.54 28C1531.28 28 1529.91 28.1667 1528.44 28.5C1527.04 28.7667 1525.74 29.4 1524.54 30.4C1523.34 31.3333 1522.34 32.7 1521.54 34.5C1520.74 36.3 1520.34 38.7 1520.34 41.7C1520.34 46.5667 1521.01 50.1667 1522.34 52.5C1523.68 54.8333 1526.21 56 1529.94 56C1532.48 56 1534.08 55.7667 1534.74 55.3C1535.41 54.7667 1535.74 53.9 1535.74 52.7C1535.74 51.5667 1535.44 50.9 1534.84 50.7C1534.24 50.4333 1533.48 50.3 1532.54 50.3C1531.81 50.3 1531.01 50.2667 1530.14 50.2C1529.34 50.1333 1528.61 49.8667 1527.94 49.4C1527.28 48.8667 1526.71 48.0667 1526.24 47C1525.84 45.8667 1525.64 44.2333 1525.64 42.1C1525.64 39.3667 1526.34 37.4 1527.74 36.2C1529.21 34.9333 1531.54 34.3 1534.74 34.3C1539.48 34.3 1543.18 34.9333 1545.84 36.2C1548.58 37.4 1550.54 38.7333 1551.74 40.2C1552.54 41.1333 1553.11 42.6333 1553.44 44.7C1553.84 46.7 1554.04 49.4333 1554.04 52.9C1554.04 56.9 1553.38 60.3333 1552.04 63.2C1550.71 66.0667 1548.88 68.4333 1546.54 70.3C1544.21 72.1 1541.44 73.4667 1538.24 74.4C1535.04 75.2667 1531.58 75.7 1527.84 75.7C1522.51 75.7 1518.01 74.9667 1514.34 73.5C1510.68 71.9667 1507.71 69.8 1505.44 67C1503.24 64.1333 1501.64 60.6333 1500.64 56.5C1499.64 52.3 1499.14 47.5333 1499.14 42.2ZM1555.2 40.6C1555.2 34.6667 1555.9 29.4667 1557.3 25C1558.7 20.4667 1560.63 16.6667 1563.1 13.6C1565.63 10.5333 1568.67 8.23333 1572.2 6.7C1575.8 5.1 1579.73 4.3 1584 4.3C1593.73 4.3 1600.73 7.4 1605 13.6C1609.33 19.8 1611.5 29.1333 1611.5 41.6C1611.5 53.6 1609.2 62.6333 1604.6 68.7C1600 74.7667 1593.4 77.8 1584.8 77.8C1580.33 77.8 1576.27 76.9667 1572.6 75.3C1568.93 73.6333 1565.8 71.2333 1563.2 68.1C1560.67 64.9 1558.7 61 1557.3 56.4C1555.9 51.7333 1555.2 46.4667 1555.2 40.6ZM1584 27.4C1583.07 27.4 1582.3 27.8667 1581.7 28.8C1581.1 29.6667 1580.6 30.8333 1580.2 32.3C1579.87 33.7667 1579.63 35.4 1579.5 37.2C1579.37 39 1579.3 40.8 1579.3 42.6C1579.3 46.4667 1579.8 49.3667 1580.8 51.3C1581.87 53.2333 1583.17 54.2 1584.7 54.2C1586.23 54.2 1587.37 53.1333 1588.1 51C1588.9 48.8667 1589.3 45.0667 1589.3 39.6C1589.3 37 1589.13 34.9333 1588.8 33.4C1588.53 31.8 1588.17 30.5667 1587.7 29.7C1587.23 28.7667 1586.67 28.1667 1586 27.9C1585.4 27.5667 1584.73 27.4 1584 27.4ZM1615.45 40.6C1615.45 34.6667 1616.15 29.4667 1617.55 25C1618.95 20.4667 1620.89 16.6667 1623.35 13.6C1625.89 10.5333 1628.92 8.23333 1632.45 6.7C1636.05 5.1 1639.99 4.3 1644.25 4.3C1653.99 4.3 1660.99 7.4 1665.25 13.6C1669.59 19.8 1671.75 29.1333 1671.75 41.6C1671.75 53.6 1669.45 62.6333 1664.85 68.7C1660.25 74.7667 1653.65 77.8 1645.05 77.8C1640.59 77.8 1636.52 76.9667 1632.85 75.3C1629.19 73.6333 1626.05 71.2333 1623.45 68.1C1620.92 64.9 1618.95 61 1617.55 56.4C1616.15 51.7333 1615.45 46.4667 1615.45 40.6ZM1644.25 27.4C1643.32 27.4 1642.55 27.8667 1641.95 28.8C1641.35 29.6667 1640.85 30.8333 1640.45 32.3C1640.12 33.7667 1639.89 35.4 1639.75 37.2C1639.62 39 1639.55 40.8 1639.55 42.6C1639.55 46.4667 1640.05 49.3667 1641.05 51.3C1642.12 53.2333 1643.42 54.2 1644.95 54.2C1646.49 54.2 1647.62 53.1333 1648.35 51C1649.15 48.8667 1649.55 45.0667 1649.55 39.6C1649.55 37 1649.39 34.9333 1649.05 33.4C1648.79 31.8 1648.42 30.5667 1647.95 29.7C1647.49 28.7667 1646.92 28.1667 1646.25 27.9C1645.65 27.5667 1644.99 27.4 1644.25 27.4ZM1691.81 6.8C1697.87 6.8 1703.31 7.4 1708.11 8.6C1712.91 9.8 1716.97 11.7667 1720.31 14.5C1723.64 17.1667 1726.17 20.7 1727.91 25.1C1729.71 29.5 1730.61 34.9 1730.61 41.3C1730.61 47.4333 1729.74 52.7667 1728.01 57.3C1726.27 61.7667 1723.74 65.4667 1720.41 68.4C1717.14 71.2667 1713.11 73.4 1708.31 74.8C1703.57 76.2 1698.17 76.9 1692.11 76.9C1686.77 76.9 1682.77 74.3333 1680.11 69.2C1677.44 64.0667 1676.11 56.6333 1676.11 46.9C1676.11 44.9 1676.11 42.6333 1676.11 40.1C1676.17 37.5 1676.31 34.8667 1676.51 32.2C1676.71 29.5333 1677.04 26.9 1677.51 24.3C1677.97 21.6333 1678.64 19.2 1679.51 17C1680.64 14 1682.24 11.5667 1684.31 9.69999C1686.37 7.76666 1688.87 6.8 1691.81 6.8ZM1701.51 30.2C1700.64 30.2 1699.94 30.5667 1699.41 31.3C1698.87 31.9667 1698.47 32.8667 1698.21 34C1697.94 35.0667 1697.77 36.3333 1697.71 37.8C1697.64 39.2 1697.61 40.6667 1697.61 42.2C1697.61 45.4 1697.91 48.1333 1698.51 50.4C1699.11 52.6 1700.04 53.8333 1701.31 54.1C1701.57 54.1667 1701.97 54.2 1702.51 54.2C1703.77 54.2 1704.81 53.8 1705.61 53C1706.41 52.2 1707.04 51.2 1707.51 50C1707.97 48.8 1708.31 47.5 1708.51 46.1C1708.71 44.7 1708.81 43.4 1708.81 42.2C1708.81 40.6667 1708.64 39.2 1708.31 37.8C1708.04 36.3333 1707.61 35.0667 1707.01 34C1706.41 32.8667 1705.64 31.9667 1704.71 31.3C1703.77 30.5667 1702.71 30.2 1701.51 30.2ZM1765.26 40.6C1765.26 34.6667 1765.96 29.4667 1767.36 25C1768.76 20.4667 1770.69 16.6667 1773.16 13.6C1775.69 10.5333 1778.72 8.23333 1782.26 6.7C1785.86 5.1 1789.79 4.3 1794.06 4.3C1803.79 4.3 1810.79 7.4 1815.06 13.6C1819.39 19.8 1821.56 29.1333 1821.56 41.6C1821.56 53.6 1819.26 62.6333 1814.66 68.7C1810.06 74.7667 1803.46 77.8 1794.86 77.8C1790.39 77.8 1786.32 76.9667 1782.66 75.3C1778.99 73.6333 1775.86 71.2333 1773.26 68.1C1770.72 64.9 1768.76 61 1767.36 56.4C1765.96 51.7333 1765.26 46.4667 1765.26 40.6ZM1794.06 27.4C1793.12 27.4 1792.36 27.8667 1791.76 28.8C1791.16 29.6667 1790.66 30.8333 1790.26 32.3C1789.92 33.7667 1789.69 35.4 1789.56 37.2C1789.42 39 1789.36 40.8 1789.36 42.6C1789.36 46.4667 1789.86 49.3667 1790.86 51.3C1791.92 53.2333 1793.22 54.2 1794.76 54.2C1796.29 54.2 1797.42 53.1333 1798.16 51C1798.96 48.8667 1799.36 45.0667 1799.36 39.6C1799.36 37 1799.19 34.9333 1798.86 33.4C1798.59 31.8 1798.22 30.5667 1797.76 29.7C1797.29 28.7667 1796.72 28.1667 1796.06 27.9C1795.46 27.5667 1794.79 27.4 1794.06 27.4ZM1824.81 39.6C1824.81 34.7333 1824.91 30.3333 1825.11 26.4C1825.38 22.4 1826.18 19 1827.51 16.2C1828.91 13.3333 1831.05 11.1333 1833.91 9.6C1836.85 8.06666 1841.01 7.3 1846.41 7.3C1850.81 7.3 1854.85 7.6 1858.51 8.2C1862.18 8.8 1865.31 9.86666 1867.91 11.4C1870.58 12.8667 1872.65 14.9 1874.11 17.5C1875.58 20.1 1876.31 23.3667 1876.31 27.3C1876.31 31.3667 1875.98 34.4667 1875.31 36.6C1874.65 38.7333 1873.88 40.3333 1873.01 41.4C1872.21 42.4667 1871.48 43.2333 1870.81 43.7C1870.15 44.1 1869.81 44.6667 1869.81 45.4C1869.81 46.5333 1870.25 47.8667 1871.11 49.4C1871.98 50.9333 1872.91 52.7 1873.91 54.7C1874.91 56.6333 1875.85 58.8 1876.71 61.2C1877.58 63.6 1878.01 66.2 1878.01 69C1878.01 70.3333 1877.61 71.5 1876.81 72.5C1876.01 73.4333 1875.01 74.2333 1873.81 74.9C1872.61 75.5667 1871.35 76.0333 1870.01 76.3C1868.68 76.6333 1867.51 76.8 1866.51 76.8C1863.45 76.8 1860.91 76.4667 1858.91 75.8C1856.98 75.2 1855.58 74.1667 1854.71 72.7C1854.38 72.1667 1854.11 71.3 1853.91 70.1C1853.71 68.9 1853.55 67.5667 1853.41 66.1C1853.28 64.5667 1853.11 63.0333 1852.91 61.5C1852.71 59.9 1852.48 58.4667 1852.21 57.2C1851.95 55.8667 1851.58 54.8 1851.11 54C1850.71 53.1333 1850.18 52.7 1849.51 52.7C1848.91 52.7 1848.55 53.1333 1848.41 54C1848.28 54.8667 1848.25 55.9333 1848.31 57.2C1848.45 58.4 1848.58 59.6667 1848.71 61C1848.91 62.2667 1849.01 63.3 1849.01 64.1C1849.01 65.1 1848.88 66.3 1848.61 67.7C1848.41 69.1 1847.95 70.4667 1847.21 71.8C1846.55 73.0667 1845.55 74.1667 1844.21 75.1C1842.88 76.0333 1841.15 76.5 1839.01 76.5C1836.95 76.5 1834.95 75.9333 1833.01 74.8C1831.08 73.6667 1829.75 72.0667 1829.01 70C1828.21 67.7333 1827.55 65.3333 1827.01 62.8C1826.48 60.2667 1826.05 57.6667 1825.71 55C1825.38 52.3333 1825.15 49.7 1825.01 47.1C1824.88 44.5 1824.81 42 1824.81 39.6ZM1851.71 26.4C1850.38 26.4 1849.28 26.9333 1848.41 28C1847.61 29 1847.21 30 1847.21 31C1847.21 32.5333 1847.65 33.7 1848.51 34.5C1849.38 35.3 1850.41 35.7 1851.61 35.7C1852.88 35.7 1853.95 35.3667 1854.81 34.7C1855.75 33.9667 1856.21 32.5333 1856.21 30.4C1856.21 29.6667 1856.05 29.0333 1855.71 28.5C1855.38 27.9667 1854.98 27.5667 1854.51 27.3C1854.11 26.9667 1853.65 26.7333 1853.11 26.6C1852.58 26.4667 1852.11 26.4 1851.71 26.4ZM1931.45 46C1931.18 46 1930.95 46.1667 1930.75 46.5C1930.62 46.8333 1930.48 47.2333 1930.35 47.7C1930.28 48.1 1930.22 48.5333 1930.15 49C1930.08 49.4667 1930.05 49.8333 1930.05 50.1C1929.92 51.5667 1929.98 52.9667 1930.25 54.3C1930.52 55.6333 1930.85 56.9333 1931.25 58.2C1931.65 59.4667 1932.02 60.7667 1932.35 62.1C1932.68 63.3667 1932.85 64.7333 1932.85 66.2C1932.85 67.3333 1932.68 68.5 1932.35 69.7C1932.02 70.9 1931.48 72 1930.75 73C1930.08 73.9333 1929.22 74.7 1928.15 75.3C1927.08 75.9 1925.85 76.2 1924.45 76.2C1924.05 76.2 1923.65 76.1667 1923.25 76.1C1922.92 76.1 1922.58 76.1 1922.25 76.1C1918.85 75.9 1916.48 74.8333 1915.15 72.9C1913.88 70.9667 1913.02 68.4667 1912.55 65.4C1911.75 60 1911.22 54.5333 1910.95 49C1910.75 43.4 1910.65 37.9 1910.65 32.5C1910.65 30.4333 1910.65 27.9 1910.65 24.9C1910.65 21.8333 1910.95 18.9 1911.55 16.1C1912.15 13.2333 1913.18 10.8 1914.65 8.79999C1916.12 6.8 1918.32 5.8 1921.25 5.8C1924.32 5.8 1926.78 6.33333 1928.65 7.39999C1930.52 8.46666 1932.35 10.3667 1934.15 13.1C1935.22 14.7 1936.08 16.0333 1936.75 17.1C1937.42 18.1667 1938.02 19.2 1938.55 20.2C1939.15 21.1333 1939.68 22.2 1940.15 23.4C1940.62 24.5333 1941.18 26 1941.85 27.8C1942.05 28.4 1942.32 29.2667 1942.65 30.4C1943.05 31.4667 1943.48 32.5667 1943.95 33.7C1944.42 34.7667 1944.92 35.7 1945.45 36.5C1945.98 37.3 1946.48 37.7 1946.95 37.7C1947.55 37.7 1947.92 37.2667 1948.05 36.4C1948.25 35.5333 1948.35 34.8333 1948.35 34.3C1948.35 32.5667 1948.18 31.1 1947.85 29.9C1947.58 28.7 1947.25 27.5333 1946.85 26.4C1946.52 25.2667 1946.18 24.1 1945.85 22.9C1945.58 21.6333 1945.45 20.1667 1945.45 18.5C1945.45 17.3 1945.55 15.9333 1945.75 14.4C1945.95 12.8667 1946.38 11.4333 1947.05 10.1C1947.72 8.7 1948.65 7.56666 1949.85 6.7C1951.12 5.76666 1952.78 5.3 1954.85 5.3C1956.92 5.3 1958.62 5.7 1959.95 6.49999C1961.35 7.23333 1962.48 8.2 1963.35 9.4C1964.22 10.6 1964.85 11.9667 1965.25 13.5C1965.72 15.0333 1966.05 16.5667 1966.25 18.1C1966.92 22.8333 1967.28 27.4667 1967.35 32C1967.48 36.5333 1967.55 41.2 1967.55 46C1967.55 50 1967.52 53.9667 1967.45 57.9C1967.38 61.8333 1966.65 65.5 1965.25 68.9C1964.52 70.7667 1963.28 72.4 1961.55 73.8C1959.88 75.2 1957.38 75.9 1954.05 75.9C1951.78 75.9 1949.72 75.1667 1947.85 73.7C1946.05 72.2333 1944.45 70.4 1943.05 68.2C1941.65 65.9333 1940.38 63.5333 1939.25 61C1938.18 58.4 1937.18 56 1936.25 53.8C1935.32 51.5333 1934.45 49.6667 1933.65 48.2C1932.92 46.7333 1932.18 46 1931.45 46ZM1971.9 40.6C1971.9 34.6667 1972.6 29.4667 1974 25C1975.4 20.4667 1977.33 16.6667 1979.8 13.6C1982.33 10.5333 1985.37 8.23333 1988.9 6.7C1992.5 5.1 1996.43 4.3 2000.7 4.3C2010.43 4.3 2017.43 7.4 2021.7 13.6C2026.03 19.8 2028.2 29.1333 2028.2 41.6C2028.2 53.6 2025.9 62.6333 2021.3 68.7C2016.7 74.7667 2010.1 77.8 2001.5 77.8C1997.03 77.8 1992.97 76.9667 1989.3 75.3C1985.63 73.6333 1982.5 71.2333 1979.9 68.1C1977.37 64.9 1975.4 61 1974 56.4C1972.6 51.7333 1971.9 46.4667 1971.9 40.6ZM2000.7 27.4C1999.77 27.4 1999 27.8667 1998.4 28.8C1997.8 29.6667 1997.3 30.8333 1996.9 32.3C1996.57 33.7667 1996.33 35.4 1996.2 37.2C1996.07 39 1996 40.8 1996 42.6C1996 46.4667 1996.5 49.3667 1997.5 51.3C1998.57 53.2333 1999.87 54.2 2001.4 54.2C2002.93 54.2 2004.07 53.1333 2004.8 51C2005.6 48.8667 2006 45.0667 2006 39.6C2006 37 2005.83 34.9333 2005.5 33.4C2005.23 31.8 2004.87 30.5667 2004.4 29.7C2003.93 28.7667 2003.37 28.1667 2002.7 27.9C2002.1 27.5667 2001.43 27.4 2000.7 27.4ZM2036.29 7C2040.36 6.4 2044.36 6.06666 2048.29 5.99999C2052.23 5.86666 2056.23 5.8 2060.29 5.8C2063.09 5.8 2065.53 6 2067.59 6.4C2069.73 6.73333 2071.36 7.06666 2072.49 7.39999C2074.76 7.99999 2076.49 9.26666 2077.69 11.2C2078.96 13.0667 2079.59 15.4667 2079.59 18.4C2079.59 20 2079.19 21.3333 2078.39 22.4C2077.66 23.4 2076.73 24.2667 2075.59 25C2074.46 25.6667 2073.23 26.2 2071.89 26.6C2070.56 26.9333 2069.33 27.2333 2068.19 27.5C2066.46 27.9 2065.33 29.1333 2064.79 31.2C2064.33 33.2 2064.09 36.1 2064.09 39.9C2064.09 42.0333 2064.23 44 2064.49 45.8C2064.76 47.5333 2065.06 49.2333 2065.39 50.9C2065.79 52.5667 2066.13 54.2667 2066.39 56C2066.66 57.7333 2066.79 59.6333 2066.79 61.7C2066.79 63.7 2066.63 65.5667 2066.29 67.3C2065.96 69.0333 2065.33 70.5667 2064.39 71.9C2063.53 73.1667 2062.36 74.2 2060.89 75C2059.43 75.7333 2057.53 76.1 2055.19 76.1C2050.66 76.1 2047.23 74.6333 2044.89 71.7C2042.63 68.7667 2041.49 64.7333 2041.49 59.6C2041.49 57.8667 2041.56 56.3333 2041.69 55C2041.89 53.6 2042.06 52.3 2042.19 51.1C2042.39 49.8333 2042.56 48.5667 2042.69 47.3C2042.89 46.0333 2042.99 44.6333 2042.99 43.1C2042.99 39.8333 2042.93 37.2333 2042.79 35.3C2042.73 33.3 2042.53 31.8 2042.19 30.8C2041.86 29.7333 2041.33 29.0333 2040.59 28.7C2039.93 28.3667 2038.99 28.2 2037.79 28.2C2036.93 28.2 2035.96 28 2034.89 27.6C2033.89 27.1333 2032.96 26.4667 2032.09 25.6C2031.23 24.6667 2030.49 23.5333 2029.89 22.2C2029.29 20.8667 2028.99 19.3 2028.99 17.5C2028.99 15.5 2029.13 13.8667 2029.39 12.6C2029.73 11.2667 2030.19 10.2333 2030.79 9.5C2031.46 8.7 2032.23 8.13333 2033.09 7.79999C2034.03 7.46666 2035.09 7.2 2036.29 7ZM2101.45 0.799996C2108.12 0.799996 2113.19 2.46666 2116.65 5.8C2120.19 9.13333 2121.95 14.1333 2121.95 20.8C2121.95 24.4 2121.52 27.2 2120.65 29.2C2119.85 31.2 2118.82 32.9667 2117.55 34.5C2116.35 35.9667 2115.02 37.4667 2113.55 39C2112.15 40.5333 2110.85 42.6 2109.65 45.2C2109.19 46.2667 2108.69 47.4 2108.15 48.6C2107.62 49.8 2106.95 50.9333 2106.15 52C2105.42 53 2104.49 53.8333 2103.35 54.5C2102.22 55.1667 2100.79 55.5 2099.05 55.5C2096.19 55.5 2093.92 54.6 2092.25 52.8C2090.59 51 2089.75 48.6 2089.75 45.6C2089.75 43.2667 2090.19 41.2 2091.05 39.4C2091.92 37.5333 2092.85 35.8333 2093.85 34.3C2094.92 32.7 2095.89 31.2667 2096.75 30C2097.62 28.6667 2098.05 27.4 2098.05 26.2C2098.05 25.2 2097.65 24.7 2096.85 24.7C2096.19 24.7 2095.55 24.9667 2094.95 25.5C2094.35 25.9667 2093.65 26.5 2092.85 27.1C2092.12 27.7 2091.29 28.2667 2090.35 28.8C2089.49 29.2667 2088.42 29.5 2087.15 29.5C2085.02 29.5 2083.39 28.7 2082.25 27.1C2081.12 25.4333 2080.55 23.1 2080.55 20.1C2080.55 17.3667 2080.99 14.8333 2081.85 12.5C2082.72 10.1667 2084.02 8.13333 2085.75 6.4C2087.55 4.66666 2089.75 3.3 2092.35 2.29999C2094.95 1.3 2097.99 0.799996 2101.45 0.799996ZM2087.05 67.7C2087.05 66.2333 2087.35 64.8667 2087.95 63.6C2088.62 62.3333 2089.49 61.2333 2090.55 60.3C2091.69 59.3 2092.99 58.5333 2094.45 58C2095.92 57.4667 2097.49 57.2 2099.15 57.2C2100.75 57.2 2102.25 57.4667 2103.65 58C2105.05 58.5333 2106.25 59.2667 2107.25 60.2C2108.32 61.1333 2109.12 62.2333 2109.65 63.5C2110.25 64.7667 2110.55 66.1667 2110.55 67.7C2110.55 69.1667 2110.25 70.5667 2109.65 71.9C2109.05 73.2333 2108.25 74.3667 2107.25 75.3C2106.25 76.2333 2105.05 76.9667 2103.65 77.5C2102.25 78.1 2100.75 78.4 2099.15 78.4C2097.55 78.4 2096.02 78.1 2094.55 77.5C2093.09 76.9667 2091.79 76.2 2090.65 75.2C2089.59 74.2667 2088.72 73.1667 2088.05 71.9C2087.39 70.5667 2087.05 69.1667 2087.05 67.7Z" fill="#EBEAEC"/>
</svg>
